<svg width="435" height="265" xmlns="http://www.w3.org/2000/svg" xmlns:xlink="http://www.w3.org/1999/xlink" overflow="hidden"><defs><clipPath id="clip0"><rect x="0" y="0" width="435" height="265"/></clipPath></defs><g clip-path="url(#clip0)"><rect x="0" y="0" width="435" height="265.298" fill="#FFFFFF"/><path d="M31.5 44.5499C31.5 36.2564 52.0949 29.5331 77.5 29.5331 102.905 29.5331 123.5 36.2564 123.5 44.5499 123.5 52.8435 102.905 59.5668 77.5 59.5668 52.0949 59.5668 31.5 52.8435 31.5 44.5499Z" stroke="#7030A0" stroke-width="1.33436" stroke-miterlimit="8" fill="none" fill-rule="evenodd"/><path d="M31.5 64.5724C31.5 56.2788 52.0949 49.5555 77.5 49.5555 102.905 49.5555 123.5 56.2788 123.5 64.5724 123.5 72.866 102.905 79.5892 77.5 79.5892 52.0949 79.5892 31.5 72.866 31.5 64.5724Z" stroke="#7030A0" stroke-width="1.33436" stroke-miterlimit="8" fill="none" fill-rule="evenodd"/><path d="M31.5 84.5948C31.5 76.3013 52.0949 69.578 77.5 69.578 102.905 69.578 123.5 76.3013 123.5 84.5948 123.5 92.8884 102.905 99.6117 77.5 99.6117 52.0949 99.6117 31.5 92.8884 31.5 84.5948Z" stroke="#7030A0" stroke-width="1.33436" stroke-miterlimit="8" fill="none" fill-rule="evenodd"/><path d="M31.5 104.117C31.5 95.5468 52.0949 88.5994 77.5 88.5994 102.905 88.5994 123.5 95.5468 123.5 104.117 123.5 112.687 102.905 119.634 77.5 119.634 52.0949 119.634 31.5 112.687 31.5 104.117Z" stroke="#7030A0" stroke-width="1.33436" stroke-miterlimit="8" fill="none" fill-rule="evenodd"/><path d="M30 43.0483 31.7735 104.626C41.6022 115.259 63.033 120.279 78.3302 120.132 93.6274 119.984 115.058 114.963 123.557 103.74L124 44.8203C118.605 55.674 93.5535 60.1779 77.8868 59.8826 62.2201 59.5873 34.5818 55.9693 30 43.0483Z" fill="#7A7AF3" fill-rule="evenodd" fill-opacity="0.301961"/><text fill="#7030A0" font-family="Calibri,Calibri_MSFontService,sans-serif" font-weight="700" font-size="14.6944" transform="matrix(1 0 0 1.00112 72.7942 25)">0</text><text fill="#7030A0" font-family="Calibri,Calibri_MSFontService,sans-serif" font-weight="700" font-size="14.6944" transform="matrix(1 0 0 1.00112 43.9721 28)">1</text><text fill="#7030A0" font-family="Calibri,Calibri_MSFontService,sans-serif" font-weight="700" font-size="14.6944" transform="matrix(1 0 0 1.00112 20.7237 37)">2</text><text fill="#7030A0" font-family="Calibri,Calibri_MSFontService,sans-serif" font-weight="700" font-size="14.6944" transform="matrix(1 0 0 1.00112 103.53 28)">n</text><text fill="#7030A0" font-family="Calibri,Calibri_MSFontService,sans-serif" font-weight="700" font-size="14.6944" transform="matrix(1 0 0 1.00112 126.405 38)">n</text><text fill="#7030A0" font-family="Calibri,Calibri_MSFontService,sans-serif" font-weight="700" font-size="14.6944" transform="matrix(1 0 0 1.00112 134.244 38)">-</text><text fill="#7030A0" font-family="Calibri,Calibri_MSFontService,sans-serif" font-weight="700" font-size="14.6944" transform="matrix(1 0 0 1.00112 138.748 38)">1</text><path d="M314.5 47.0528C314.5 38.4828 335.095 31.5354 360.5 31.5354 385.905 31.5354 406.5 38.4828 406.5 47.0528 406.5 55.6228 385.905 62.5701 360.5 62.5701 335.095 62.5701 314.5 55.6228 314.5 47.0528Z" stroke="#7030A0" stroke-width="1.33436" stroke-miterlimit="8" fill="none" fill-rule="evenodd"/><path d="M314.5 66.5747C314.5 58.2811 335.095 51.5579 360.5 51.5579 385.905 51.5579 406.5 58.2811 406.5 66.5747 406.5 74.8683 385.905 81.5915 360.5 81.5915 335.095 81.5915 314.5 74.8683 314.5 66.5747Z" stroke="#7030A0" stroke-width="1.33436" stroke-miterlimit="8" fill="none" fill-rule="evenodd"/><path d="M314.5 86.5971C314.5 78.3036 335.095 71.5803 360.5 71.5803 385.905 71.5803 406.5 78.3036 406.5 86.5971 406.5 94.8907 385.905 101.614 360.5 101.614 335.095 101.614 314.5 94.8907 314.5 86.5971Z" stroke="#7030A0" stroke-width="1.33436" stroke-miterlimit="8" fill="none" fill-rule="evenodd"/><path d="M314.5 106.62C314.5 98.326 335.095 91.6028 360.5 91.6028 385.905 91.6028 406.5 98.326 406.5 106.62 406.5 114.913 385.905 121.636 360.5 121.636 335.095 121.636 314.5 114.913 314.5 106.62Z" stroke="#7030A0" stroke-width="1.33436" stroke-miterlimit="8" fill="none" fill-rule="evenodd"/><path d="M312 46.0516 313.792 107.63C323.726 118.262 345.384 123.283 360.844 123.135 376.304 122.987 397.963 117.966 406.552 106.744L407 47.8236C401.548 58.6773 376.23 63.1812 360.396 62.8859 344.563 62.5906 316.631 58.9726 312 46.0516Z" fill="#7A7AF3" fill-rule="evenodd" fill-opacity="0.301961"/><text fill="#7030A0" font-family="Calibri,Calibri_MSFontService,sans-serif" font-weight="700" font-size="14.6944" transform="matrix(1 0 0 1.00112 355.068 27)">0</text><text fill="#7030A0" font-family="Calibri,Calibri_MSFontService,sans-serif" font-weight="700" font-size="14.6944" transform="matrix(1 0 0 1.00112 381.506 30)">1</text><text fill="#7030A0" font-family="Calibri,Calibri_MSFontService,sans-serif" font-weight="700" font-size="14.6944" transform="matrix(1 0 0 1.00112 404.279 38)">2</text><text fill="#7030A0" font-family="Calibri,Calibri_MSFontService,sans-serif" font-weight="700" font-size="14.6944" transform="matrix(1 0 0 1.00112 325.805 31)">n</text><text fill="#7030A0" font-family="Calibri,Calibri_MSFontService,sans-serif" font-weight="700" font-size="14.6944" transform="matrix(1 0 0 1.00112 290.878 40)">n</text><text fill="#7030A0" font-family="Calibri,Calibri_MSFontService,sans-serif" font-weight="700" font-size="14.6944" transform="matrix(1 0 0 1.00112 298.717 40)">-</text><text fill="#7030A0" font-family="Calibri,Calibri_MSFontService,sans-serif" font-weight="700" font-size="14.6944" transform="matrix(1 0 0 1.00112 303.221 40)">1</text><path d="M146.5 60.3177 266 60.3177 266 53.5601 279.5 67.0752 266 80.5904 266 73.8329 146.5 73.8329Z" stroke="#7030A0" stroke-width="1.33436" stroke-miterlimit="8" fill="#FFFFFF" fill-rule="evenodd"/><text fill="#7030A0" font-family="Calibri,Calibri_MSFontService,sans-serif" font-weight="700" font-size="14.6944" transform="matrix(1 0 0 1.00112 155.6 99)">p2</text><text fill="#7030A0" font-family="Calibri,Calibri_MSFontService,sans-serif" font-weight="700" font-size="14.6944" transform="matrix(1 0 0 1.00112 185.623 99)">reverse</text><text fill="#7030A0" font-family="Yu Gothic,Yu Gothic_MSFontService,sans-serif" font-weight="700" font-size="14.6944" transform="matrix(1 0 0 1.00112 245.503 99)">ｐ</text><path d="M31.5 173.194C31.5 164.624 52.0949 157.677 77.5 157.677 102.905 157.677 123.5 164.624 123.5 173.194 123.5 181.764 102.905 188.712 77.5 188.712 52.0949 188.712 31.5 181.764 31.5 173.194Z" stroke="#7030A0" stroke-width="1.33436" stroke-miterlimit="8" fill="none" fill-rule="evenodd"/><path d="M31.5 193.217C31.5 184.647 52.0949 177.699 77.5 177.699 102.905 177.699 123.5 184.647 123.5 193.217 123.5 201.787 102.905 208.734 77.5 208.734 52.0949 208.734 31.5 201.787 31.5 193.217Z" stroke="#7030A0" stroke-width="1.33436" stroke-miterlimit="8" fill="none" fill-rule="evenodd"/><path d="M31.5 212.739C31.5 204.445 52.0949 197.722 77.5 197.722 102.905 197.722 123.5 204.445 123.5 212.739 123.5 221.032 102.905 227.755 77.5 227.755 52.0949 227.755 31.5 221.032 31.5 212.739Z" stroke="#7030A0" stroke-width="1.33436" stroke-miterlimit="8" fill="none" fill-rule="evenodd"/><path d="M31.5 232.761C31.5 224.467 52.0949 217.744 77.5 217.744 102.905 217.744 123.5 224.467 123.5 232.761 123.5 241.055 102.905 247.778 77.5 247.778 52.0949 247.778 31.5 241.055 31.5 232.761Z" stroke="#7030A0" stroke-width="1.33436" stroke-miterlimit="8" fill="none" fill-rule="evenodd"/><path d="M30 172.193 31.7735 233.771C41.6022 244.403 63.033 249.424 78.3302 249.276 93.6274 249.129 115.058 244.108 123.557 232.885L124 173.965C118.605 184.819 93.5535 189.323 77.8868 189.027 62.2201 188.732 34.5818 185.114 30 172.193Z" fill="#7A7AF3" fill-rule="evenodd" fill-opacity="0.301961"/><text fill="#7030A0" font-family="Calibri,Calibri_MSFontService,sans-serif" font-weight="700" font-size="14.6944" transform="matrix(1 0 0 1.00112 15.15 177)">0</text><text fill="#7030A0" font-family="Calibri,Calibri_MSFontService,sans-serif" font-weight="700" font-size="14.6944" transform="matrix(1 0 0 1.00112 14.0212 201)">1</text><text fill="#7030A0" font-family="Calibri,Calibri_MSFontService,sans-serif" font-weight="700" font-size="14.6944" transform="matrix(1 0 0 1.00112 15.737 242)">n</text><text fill="#7030A0" font-family="Calibri,Calibri_MSFontService,sans-serif" font-weight="700" font-size="14.6944" transform="matrix(1 0 0 1.00112 286.995 205)">n</text><text fill="#7030A0" font-family="Calibri,Calibri_MSFontService,sans-serif" font-weight="700" font-size="14.6944" transform="matrix(1 0 0 1.00112 294.834 205)">-</text><text fill="#7030A0" font-family="Calibri,Calibri_MSFontService,sans-serif" font-weight="700" font-size="14.6944" transform="matrix(1 0 0 1.00112 299.338 205)">1</text><path d="M314.5 175.697C314.5 167.403 335.095 160.68 360.5 160.68 385.905 160.68 406.5 167.403 406.5 175.697 406.5 183.991 385.905 190.714 360.5 190.714 335.095 190.714 314.5 183.991 314.5 175.697Z" stroke="#7030A0" stroke-width="1.33436" stroke-miterlimit="8" fill="none" fill-rule="evenodd"/><path d="M314.5 195.719C314.5 187.426 335.095 180.703 360.5 180.703 385.905 180.703 406.5 187.426 406.5 195.719 406.5 204.013 385.905 210.736 360.5 210.736 335.095 210.736 314.5 204.013 314.5 195.719Z" stroke="#7030A0" stroke-width="1.33436" stroke-miterlimit="8" fill="none" fill-rule="evenodd"/><path d="M314.5 215.742C314.5 207.448 335.095 200.725 360.5 200.725 385.905 200.725 406.5 207.448 406.5 215.742 406.5 224.035 385.905 230.759 360.5 230.759 335.095 230.759 314.5 224.035 314.5 215.742Z" stroke="#7030A0" stroke-width="1.33436" stroke-miterlimit="8" fill="none" fill-rule="evenodd"/><path d="M314.5 235.264C314.5 226.694 335.095 219.746 360.5 219.746 385.905 219.746 406.5 226.694 406.5 235.264 406.5 243.834 385.905 250.781 360.5 250.781 335.095 250.781 314.5 243.834 314.5 235.264Z" stroke="#7030A0" stroke-width="1.33436" stroke-miterlimit="8" fill="none" fill-rule="evenodd"/><path d="M312 174.195 313.792 236.573C323.726 247.343 345.384 252.429 360.844 252.28 376.304 252.13 397.963 247.044 406.552 235.676L407 175.99C401.548 186.985 376.23 191.547 360.396 191.248 344.563 190.949 316.631 187.284 312 174.195Z" fill="#7A7AF3" fill-rule="evenodd" fill-opacity="0.301961"/><text fill="#7030A0" font-family="Calibri,Calibri_MSFontService,sans-serif" font-weight="700" font-size="14.6944" transform="matrix(1 0 0 1.00112 295.343 244)">0</text><text fill="#7030A0" font-family="Calibri,Calibri_MSFontService,sans-serif" font-weight="700" font-size="14.6944" transform="matrix(1 0 0 1.00112 293.907 176)">n</text><path d="M146.5 190.714 265.5 190.714 265.5 183.706 279.5 197.722 265.5 211.737 265.5 204.73 146.5 204.73Z" stroke="#7030A0" stroke-width="1.33436" stroke-miterlimit="8" fill="#FFFFFF" fill-rule="evenodd"/><text fill="#7030A0" font-family="Calibri,Calibri_MSFontService,sans-serif" font-weight="700" font-size="14.6944" transform="matrix(1 0 0 1.00112 155.6 228)">p2</text><text fill="#7030A0" font-family="Calibri,Calibri_MSFontService,sans-serif" font-weight="700" font-size="14.6944" transform="matrix(1 0 0 1.00112 185.623 228)">reverse</text><text fill="#7030A0" font-family="Calibri,Calibri_MSFontService,sans-serif" font-weight="700" font-size="14.6944" transform="matrix(1 0 0 1.00112 245.503 228)">e</text></g></svg>