<svg width="926" height="284" xmlns="http://www.w3.org/2000/svg" xmlns:xlink="http://www.w3.org/1999/xlink" overflow="hidden"><defs><clipPath id="clip0"><rect x="0" y="0" width="926" height="284"/></clipPath></defs><g clip-path="url(#clip0)"><rect x="0" y="0" width="926" height="284.501" fill="#FFFFFF"/><path d="M907.5 248.938 883.013 208.641 835.999 196.847 788.984 209.624 760.579 245.007 717.482 245.99 692.996 207.658 645.981 196.847 601.905 208.641 573.5 244.024" stroke="#172C51" stroke-width="1.33333" stroke-miterlimit="8" fill="none" fill-rule="evenodd"/><path d="M489.474 93.665 517.887 53.3395 561.977 39.5697 611.945 51.3723 633.5 91.6979 294.5 89.7308 325.853 51.3723 365.043 40.5532 416.971 54.323 440.486 89.7308" stroke="#172C51" stroke-width="1.33333" stroke-miterlimit="8" fill="none" fill-rule="evenodd"/><path d="M8.50005 94.6667C8.50005 89.6874 12.5295 85.6508 17.5001 85.6508 22.4706 85.6508 26.5 89.6874 26.5 94.6667 26.5 99.646 22.4706 103.683 17.5001 103.683 12.5295 103.683 8.50005 99.646 8.50005 94.6667Z" stroke="#172C51" stroke-width="1.33333" stroke-miterlimit="8" fill="#FFC000" fill-rule="evenodd"/><path d="M38.5001 58.1023C38.5001 53.3996 42.3056 49.5874 47.0001 49.5874 51.6945 49.5874 55.5001 53.3996 55.5001 58.1023 55.5001 62.805 51.6945 66.6173 47.0001 66.6173 42.3056 66.6173 38.5001 62.805 38.5001 58.1023Z" stroke="#172C51" stroke-width="1.33333" stroke-miterlimit="8" fill="#FFC000" fill-rule="evenodd"/><path d="M80.5001 46.0812C80.5001 41.3785 84.5295 37.5662 89.5001 37.5662 94.4706 37.5662 98.5001 41.3785 98.5001 46.0812 98.5001 50.7839 94.4706 54.5962 89.5001 54.5962 84.5295 54.5962 80.5001 50.7839 80.5001 46.0812Z" stroke="#172C51" stroke-width="1.33333" stroke-miterlimit="8" fill="#FFC000" fill-rule="evenodd"/><path d="M129.5 58.1023C129.5 53.3996 133.529 49.5874 138.5 49.5874 143.471 49.5874 147.5 53.3996 147.5 58.1023 147.5 62.805 143.471 66.6173 138.5 66.6173 133.529 66.6173 129.5 62.805 129.5 58.1023Z" stroke="#172C51" stroke-width="1.33333" stroke-miterlimit="8" fill="#FFC000" fill-rule="evenodd"/><path d="M153.5 94.6667C153.5 89.6874 157.529 85.6508 162.5 85.6508 167.471 85.6508 171.5 89.6874 171.5 94.6667 171.5 99.646 167.471 103.683 162.5 103.683 157.529 103.683 153.5 99.646 153.5 94.6667Z" stroke="#172C51" stroke-width="1.33333" stroke-miterlimit="8" fill="#FFC000" fill-rule="evenodd"/><text font-family="Calibri,Calibri_MSFontService,sans-serif" font-weight="700" font-size="14.6925" transform="matrix(1 0 0 1.00176 13.642 84)">0</text><text font-family="Calibri,Calibri_MSFontService,sans-serif" font-weight="700" font-size="14.6925" transform="matrix(1 0 0 1.00176 42.2578 46)">1</text><text font-family="Calibri,Calibri_MSFontService,sans-serif" font-weight="700" font-size="14.6925" transform="matrix(1 0 0 1.00176 84.9719 32)">2</text><text font-family="Calibri,Calibri_MSFontService,sans-serif" font-weight="700" font-size="14.6925" transform="matrix(1 0 0 1.00176 134.633 47)">3</text><text font-family="Calibri,Calibri_MSFontService,sans-serif" font-weight="700" font-size="14.6925" transform="matrix(1 0 0 1.00176 157.993 83)">4</text><path d="M216.683 166.926 236.669 177.182 242.419 165.936 250.904 198.683 219.418 210.918 225.168 199.673 205.183 189.417Z" stroke="#172C51" stroke-width="1.33382" stroke-miterlimit="8" fill="#4472C4" fill-rule="evenodd"/><text fill="#7030A0" font-family="Calibri,Calibri_MSFontService,sans-serif" font-weight="700" font-size="14.6925" transform="matrix(1 0 0 1.00176 193.188 233)">p</text><text fill="#7030A0" font-family="Calibri,Calibri_MSFontService,sans-serif" font-weight="700" font-size="14.6925" transform="matrix(1 0 0 1.00176 204.354 233)">reverse</text><path d="M281.5 248.437C281.5 243.735 285.53 239.922 290.5 239.922 295.471 239.922 299.5 243.735 299.5 248.437 299.5 253.14 295.471 256.952 290.5 256.952 285.53 256.952 281.5 253.14 281.5 248.437Z" stroke="#172C51" stroke-width="1.33333" stroke-miterlimit="8" fill="#FFC000" fill-rule="evenodd"/><path d="M310.5 211.873C310.5 206.894 314.53 202.857 319.5 202.857 324.471 202.857 328.5 206.894 328.5 211.873 328.5 216.852 324.471 220.889 319.5 220.889 314.53 220.889 310.5 216.852 310.5 211.873Z" stroke="#172C51" stroke-width="1.33333" stroke-miterlimit="8" fill="#FFC000" fill-rule="evenodd"/><path d="M353.5 199.852C353.5 194.873 357.53 190.836 362.5 190.836 367.471 190.836 371.5 194.873 371.5 199.852 371.5 204.831 367.471 208.868 362.5 208.868 357.53 208.868 353.5 204.831 353.5 199.852Z" stroke="#172C51" stroke-width="1.33333" stroke-miterlimit="8" fill="#FFC000" fill-rule="evenodd"/><path d="M401.5 211.873C401.5 206.894 405.53 202.857 410.5 202.857 415.471 202.857 419.5 206.894 419.5 211.873 419.5 216.852 415.471 220.889 410.5 220.889 405.53 220.889 401.5 216.852 401.5 211.873Z" stroke="#172C51" stroke-width="1.33333" stroke-miterlimit="8" fill="#FFC000" fill-rule="evenodd"/><path d="M425.5 248.437C425.5 243.735 429.53 239.922 434.5 239.922 439.471 239.922 443.5 243.735 443.5 248.437 443.5 253.14 439.471 256.952 434.5 256.952 429.53 256.952 425.5 253.14 425.5 248.437Z" stroke="#172C51" stroke-width="1.33333" stroke-miterlimit="8" fill="#FFC000" fill-rule="evenodd"/><text font-family="Calibri,Calibri_MSFontService,sans-serif" font-weight="700" font-size="14.6925" transform="matrix(1 0 0 1.00176 285.918 237)">4</text><text font-family="Calibri,Calibri_MSFontService,sans-serif" font-weight="700" font-size="14.6925" transform="matrix(1 0 0 1.00176 314.534 200)">3</text><text font-family="Calibri,Calibri_MSFontService,sans-serif" font-weight="700" font-size="14.6925" transform="matrix(1 0 0 1.00176 357.248 186)">2</text><text font-family="Calibri,Calibri_MSFontService,sans-serif" font-weight="700" font-size="14.6925" transform="matrix(1 0 0 1.00176 406.909 201)">1</text><text font-family="Calibri,Calibri_MSFontService,sans-serif" font-weight="700" font-size="14.6925" transform="matrix(1 0 0 1.00176 430.269 237)">0</text><path d="M488.5 206.614 511 206.614 511 193.841 533.5 219.386 511 244.931 511 232.159 488.5 232.159Z" stroke="#172C51" stroke-width="1.33333" stroke-miterlimit="8" fill="#4472C4" fill-rule="evenodd"/><text fill="#7030A0" font-family="Calibri,Calibri_MSFontService,sans-serif" font-weight="700" font-size="14.6925" transform="matrix(1 0 0 1.00176 465.071 266)">p</text><text fill="#7030A0" font-family="Calibri,Calibri_MSFontService,sans-serif" font-weight="700" font-size="14.6925" transform="matrix(1 0 0 1.00176 476.237 266)">t * * * 2</text><path d="M564.5 246.935C564.5 241.955 568.529 237.919 573.5 237.919 578.471 237.919 582.5 241.955 582.5 246.935 582.5 251.914 578.471 255.951 573.5 255.951 568.529 255.951 564.5 251.914 564.5 246.935Z" stroke="#172C51" stroke-width="1.33333" stroke-miterlimit="8" fill="#FFC000" fill-rule="evenodd"/><path d="M593.5 209.87C593.5 204.89 597.529 200.854 602.5 200.854 607.471 200.854 611.5 204.89 611.5 209.87 611.5 214.849 607.471 218.885 602.5 218.885 597.529 218.885 593.5 214.849 593.5 209.87Z" stroke="#172C51" stroke-width="1.33333" stroke-miterlimit="8" fill="#FFC000" fill-rule="evenodd"/><path d="M636.5 197.848C636.5 192.869 640.529 188.833 645.5 188.833 650.471 188.833 654.5 192.869 654.5 197.848 654.5 202.828 650.471 206.864 645.5 206.864 640.529 206.864 636.5 202.828 636.5 197.848Z" stroke="#172C51" stroke-width="1.33333" stroke-miterlimit="8" fill="#FFC000" fill-rule="evenodd"/><path d="M684.5 209.87C684.5 204.89 688.529 200.854 693.5 200.854 698.471 200.854 702.5 204.89 702.5 209.87 702.5 214.849 698.471 218.885 693.5 218.885 688.529 218.885 684.5 214.849 684.5 209.87Z" stroke="#172C51" stroke-width="1.33333" stroke-miterlimit="8" fill="#FFC000" fill-rule="evenodd"/><path d="M709.5 246.935C709.5 241.955 713.529 237.919 718.5 237.919 723.471 237.919 727.5 241.955 727.5 246.935 727.5 251.914 723.471 255.951 718.5 255.951 713.529 255.951 709.5 251.914 709.5 246.935Z" stroke="#172C51" stroke-width="1.33333" stroke-miterlimit="8" fill="#FFC000" fill-rule="evenodd"/><text font-family="Calibri,Calibri_MSFontService,sans-serif" font-weight="700" font-size="14.6925" transform="matrix(1 0 0 1.00176 569.312 236)">9</text><text font-family="Calibri,Calibri_MSFontService,sans-serif" font-weight="700" font-size="14.6925" transform="matrix(1 0 0 1.00176 597.928 198)">8</text><text font-family="Calibri,Calibri_MSFontService,sans-serif" font-weight="700" font-size="14.6925" transform="matrix(1 0 0 1.00176 640.642 185)">7</text><text font-family="Calibri,Calibri_MSFontService,sans-serif" font-weight="700" font-size="14.6925" transform="matrix(1 0 0 1.00176 690.304 199)">6</text><text font-family="Calibri,Calibri_MSFontService,sans-serif" font-weight="700" font-size="14.6925" transform="matrix(1 0 0 1.00176 713.663 236)">5</text><path d="M752.5 246.935C752.5 241.955 756.529 237.919 761.5 237.919 766.471 237.919 770.5 241.955 770.5 246.935 770.5 251.914 766.471 255.951 761.5 255.951 756.529 255.951 752.5 251.914 752.5 246.935Z" stroke="#172C51" stroke-width="1.33333" stroke-miterlimit="8" fill="#FFC000" fill-rule="evenodd"/><path d="M781.5 209.87C781.5 204.89 785.529 200.854 790.5 200.854 795.471 200.854 799.5 204.89 799.5 209.87 799.5 214.849 795.471 218.885 790.5 218.885 785.529 218.885 781.5 214.849 781.5 209.87Z" stroke="#172C51" stroke-width="1.33333" stroke-miterlimit="8" fill="#FFC000" fill-rule="evenodd"/><path d="M824.5 197.848C824.5 192.869 828.529 188.833 833.5 188.833 838.471 188.833 842.5 192.869 842.5 197.848 842.5 202.828 838.471 206.864 833.5 206.864 828.529 206.864 824.5 202.828 824.5 197.848Z" stroke="#172C51" stroke-width="1.33333" stroke-miterlimit="8" fill="#FFC000" fill-rule="evenodd"/><path d="M872.5 209.87C872.5 204.89 876.529 200.854 881.5 200.854 886.471 200.854 890.5 204.89 890.5 209.87 890.5 214.849 886.471 218.885 881.5 218.885 876.529 218.885 872.5 214.849 872.5 209.87Z" stroke="#172C51" stroke-width="1.33333" stroke-miterlimit="8" fill="#FFC000" fill-rule="evenodd"/><path d="M897.5 246.935C897.5 241.955 901.529 237.919 906.5 237.919 911.471 237.919 915.5 241.955 915.5 246.935 915.5 251.914 911.471 255.951 906.5 255.951 901.529 255.951 897.5 251.914 897.5 246.935Z" stroke="#172C51" stroke-width="1.33333" stroke-miterlimit="8" fill="#FFC000" fill-rule="evenodd"/><text font-family="Calibri,Calibri_MSFontService,sans-serif" font-weight="700" font-size="14.6925" transform="matrix(1 0 0 1.00176 757.302 236)">4</text><text font-family="Calibri,Calibri_MSFontService,sans-serif" font-weight="700" font-size="14.6925" transform="matrix(1 0 0 1.00176 785.918 198)">3</text><text font-family="Calibri,Calibri_MSFontService,sans-serif" font-weight="700" font-size="14.6925" transform="matrix(1 0 0 1.00176 828.632 184)">2</text><text font-family="Calibri,Calibri_MSFontService,sans-serif" font-weight="700" font-size="14.6925" transform="matrix(1 0 0 1.00176 878.294 199)">1</text><text font-family="Calibri,Calibri_MSFontService,sans-serif" font-weight="700" font-size="14.6925" transform="matrix(1 0 0 1.00176 901.653 236)">0</text><path d="M204.5 62.1094 227 62.1094 227 49.5874 249.5 74.6314 227 99.6755 227 87.1535 204.5 87.1535Z" stroke="#172C51" stroke-width="1.33333" stroke-miterlimit="8" fill="#4472C4" fill-rule="evenodd"/><text fill="#7030A0" font-family="Calibri,Calibri_MSFontService,sans-serif" font-weight="700" font-size="14.6925" transform="matrix(1 0 0 1.00176 187.382 122)">p</text><text fill="#7030A0" font-family="Calibri,Calibri_MSFontService,sans-serif" font-weight="700" font-size="14.6925" transform="matrix(1 0 0 1.00176 198.548 122)">t * * * 2</text><path d="M284.5 91.6614C284.5 86.6821 288.306 82.6456 293 82.6456 297.694 82.6456 301.5 86.6821 301.5 91.6614 301.5 96.6408 297.694 100.677 293 100.677 288.306 100.677 284.5 96.6408 284.5 91.6614Z" stroke="#172C51" stroke-width="1.33333" stroke-miterlimit="8" fill="#FFC000" fill-rule="evenodd"/><path d="M313.5 54.5962C313.5 49.6168 317.53 45.5803 322.5 45.5803 327.471 45.5803 331.5 49.6168 331.5 54.5962 331.5 59.5755 327.471 63.612 322.5 63.612 317.53 63.612 313.5 59.5755 313.5 54.5962Z" stroke="#172C51" stroke-width="1.33333" stroke-miterlimit="8" fill="#FFC000" fill-rule="evenodd"/><path d="M356.5 42.575C356.5 37.5957 360.306 33.5591 365 33.5591 369.694 33.5591 373.5 37.5957 373.5 42.575 373.5 47.5543 369.694 51.5909 365 51.5909 360.306 51.5909 356.5 47.5543 356.5 42.575Z" stroke="#172C51" stroke-width="1.33333" stroke-miterlimit="8" fill="#FFC000" fill-rule="evenodd"/><path d="M404.5 54.5962C404.5 49.6168 408.53 45.5803 413.5 45.5803 418.471 45.5803 422.5 49.6168 422.5 54.5962 422.5 59.5755 418.471 63.612 413.5 63.612 408.53 63.612 404.5 59.5755 404.5 54.5962Z" stroke="#172C51" stroke-width="1.33333" stroke-miterlimit="8" fill="#FFC000" fill-rule="evenodd"/><path d="M428.5 91.6614C428.5 86.6821 432.53 82.6456 437.5 82.6456 442.471 82.6456 446.5 86.6821 446.5 91.6614 446.5 96.6408 442.471 100.677 437.5 100.677 432.53 100.677 428.5 96.6408 428.5 91.6614Z" stroke="#172C51" stroke-width="1.33333" stroke-miterlimit="8" fill="#FFC000" fill-rule="evenodd"/><text font-family="Calibri,Calibri_MSFontService,sans-serif" font-weight="700" font-size="14.6925" transform="matrix(1 0 0 1.00176 288.791 80)">5</text><text font-family="Calibri,Calibri_MSFontService,sans-serif" font-weight="700" font-size="14.6925" transform="matrix(1 0 0 1.00176 317.406 43)">6</text><text font-family="Calibri,Calibri_MSFontService,sans-serif" font-weight="700" font-size="14.6925" transform="matrix(1 0 0 1.00176 360.12 29)">7</text><text font-family="Calibri,Calibri_MSFontService,sans-serif" font-weight="700" font-size="14.6925" transform="matrix(1 0 0 1.00176 409.782 44)">8</text><text font-family="Calibri,Calibri_MSFontService,sans-serif" font-weight="700" font-size="14.6925" transform="matrix(1 0 0 1.00176 433.141 80)">9</text><path d="M479.5 91.6614C479.5 86.6821 483.53 82.6456 488.5 82.6456 493.471 82.6456 497.5 86.6821 497.5 91.6614 497.5 96.6408 493.471 100.677 488.5 100.677 483.53 100.677 479.5 96.6408 479.5 91.6614Z" stroke="#172C51" stroke-width="1.33333" stroke-miterlimit="8" fill="#FFC000" fill-rule="evenodd"/><path d="M508.5 54.5962C508.5 49.6168 512.529 45.5803 517.5 45.5803 522.471 45.5803 526.5 49.6168 526.5 54.5962 526.5 59.5755 522.471 63.612 517.5 63.612 512.529 63.612 508.5 59.5755 508.5 54.5962Z" stroke="#172C51" stroke-width="1.33333" stroke-miterlimit="8" fill="#FFC000" fill-rule="evenodd"/><path d="M551.5 42.575C551.5 37.5957 555.529 33.5591 560.5 33.5591 565.471 33.5591 569.5 37.5957 569.5 42.575 569.5 47.5543 565.471 51.5909 560.5 51.5909 555.529 51.5909 551.5 47.5543 551.5 42.575Z" stroke="#172C51" stroke-width="1.33333" stroke-miterlimit="8" fill="#FFC000" fill-rule="evenodd"/><path d="M600.5 54.5962C600.5 49.6168 604.306 45.5803 609 45.5803 613.694 45.5803 617.5 49.6168 617.5 54.5962 617.5 59.5755 613.694 63.612 609 63.612 604.306 63.612 600.5 59.5755 600.5 54.5962Z" stroke="#172C51" stroke-width="1.33333" stroke-miterlimit="8" fill="#FFC000" fill-rule="evenodd"/><path d="M624.5 91.6614C624.5 86.6821 628.529 82.6456 633.5 82.6456 638.471 82.6456 642.5 86.6821 642.5 91.6614 642.5 96.6408 638.471 100.677 633.5 100.677 628.529 100.677 624.5 96.6408 624.5 91.6614Z" stroke="#172C51" stroke-width="1.33333" stroke-miterlimit="8" fill="#FFC000" fill-rule="evenodd"/><text font-family="Calibri,Calibri_MSFontService,sans-serif" font-weight="700" font-size="14.6925" transform="matrix(1 0 0 1.00176 484.394 80)">0</text><text font-family="Calibri,Calibri_MSFontService,sans-serif" font-weight="700" font-size="14.6925" transform="matrix(1 0 0 1.00176 513.01 43)">1</text><text font-family="Calibri,Calibri_MSFontService,sans-serif" font-weight="700" font-size="14.6925" transform="matrix(1 0 0 1.00176 555.724 29)">2</text><text font-family="Calibri,Calibri_MSFontService,sans-serif" font-weight="700" font-size="14.6925" transform="matrix(1 0 0 1.00176 605.385 44)">3</text><text font-family="Calibri,Calibri_MSFontService,sans-serif" font-weight="700" font-size="14.6925" transform="matrix(1 0 0 1.00176 628.745 80)">4</text></g></svg>