<svg width="662" height="529" xmlns="http://www.w3.org/2000/svg" xmlns:xlink="http://www.w3.org/1999/xlink" overflow="hidden"><defs><clipPath id="clip0"><rect x="0" y="0" width="662" height="529"/></clipPath></defs><g clip-path="url(#clip0)"><rect x="0" y="0" width="662" height="529.433" fill="#FFFFFF"/><path d="M327.5 364.656 358.611 324.621 401.278 312.166 454.611 324.621 478.611 363.767 493.722 431.382 522.167 468.748 572.833 482.983 615.5 470.527 647.5 432.271" stroke="#172C51" stroke-width="1.33434" stroke-miterlimit="8" fill="none" fill-rule="evenodd"/><path d="M324.5 89.8413 355.6 47.137 400.918 36.461 448.901 50.6957 475.558 88.062 643.5 158.346 612.4 193.043 568.859 207.278 519.099 195.712 494.219 160.125" stroke="#172C51" stroke-width="1.33434" stroke-miterlimit="8" fill="none" fill-rule="evenodd"/><path d="M7.50005 97.8951C7.50005 92.6541 11.5295 88.4053 16.5 88.4053 21.4706 88.4053 25.5 92.6541 25.5 97.8951 25.5 103.136 21.4706 107.385 16.5 107.385 11.5295 107.385 7.50005 103.136 7.50005 97.8951Z" stroke="#172C51" stroke-width="1.33434" stroke-miterlimit="8" fill="#FFC000" fill-rule="evenodd"/><path d="M37.5 60.4353C37.5 55.47 41.5295 51.4449 46.5 51.4449 51.4706 51.4449 55.5 55.47 55.5 60.4353 55.5 65.4006 51.4706 69.4257 46.5 69.4257 41.5295 69.4257 37.5 65.4006 37.5 60.4353Z" stroke="#172C51" stroke-width="1.33434" stroke-miterlimit="8" fill="#FFC000" fill-rule="evenodd"/><path d="M81.5 47.9487C81.5 42.7076 85.5294 38.4589 90.5 38.4589 95.4706 38.4589 99.5 42.7076 99.5 47.9487 99.5 53.1898 95.4706 57.4385 90.5 57.4385 85.5294 57.4385 81.5 53.1898 81.5 47.9487Z" stroke="#172C51" stroke-width="1.33434" stroke-miterlimit="8" fill="#FFC000" fill-rule="evenodd"/><path d="M131.5 60.4353C131.5 55.47 135.529 51.4449 140.5 51.4449 145.471 51.4449 149.5 55.47 149.5 60.4353 149.5 65.4006 145.471 69.4257 140.5 69.4257 135.529 69.4257 131.5 65.4006 131.5 60.4353Z" stroke="#172C51" stroke-width="1.33434" stroke-miterlimit="8" fill="#FFC000" fill-rule="evenodd"/><path d="M156.5 97.8951C156.5 92.6541 160.529 88.4053 165.5 88.4053 170.471 88.4053 174.5 92.6541 174.5 97.8951 174.5 103.136 170.471 107.385 165.5 107.385 160.529 107.385 156.5 103.136 156.5 97.8951Z" stroke="#172C51" stroke-width="1.33434" stroke-miterlimit="8" fill="#FFC000" fill-rule="evenodd"/><text font-family="Calibri,Calibri_MSFontService,sans-serif" font-weight="700" font-size="14.662" transform="matrix(1 0 0 0.99893 11.7239 86)">0</text><text font-family="Calibri,Calibri_MSFontService,sans-serif" font-weight="700" font-size="14.662" transform="matrix(1 0 0 0.99893 41.2571 47)">1</text><text font-family="Calibri,Calibri_MSFontService,sans-serif" font-weight="700" font-size="14.662" transform="matrix(1 0 0 0.99893 85.3403 33)">2</text><text font-family="Calibri,Calibri_MSFontService,sans-serif" font-weight="700" font-size="14.662" transform="matrix(1 0 0 0.99893 136.594 48)">3</text><text font-family="Calibri,Calibri_MSFontService,sans-serif" font-weight="700" font-size="14.662" transform="matrix(1 0 0 0.99893 160.702 86)">4</text><path d="M165 134.856C165 128.787 170.149 123.867 176.5 123.867 182.851 123.867 188 128.787 188 134.856 188 140.924 182.851 145.844 176.5 145.844 170.149 145.844 165 140.924 165 134.856Z" stroke="#FF0000" stroke-width="2.00151" stroke-miterlimit="8" fill="none" fill-rule="evenodd"/><path d="M169 126.864 184 142.847" stroke="#FF0000" stroke-width="2.00151" stroke-miterlimit="8" fill="none" fill-rule="evenodd"/><path d="M0 0 14.9839 15.9829" stroke="#FF0000" stroke-width="1.99937" stroke-miterlimit="8" fill="none" fill-rule="evenodd" transform="matrix(-1.00107 0 0 1 184 126.864)"/><text fill="#FF0000" font-family="Calibri,Calibri_MSFontService,sans-serif" font-weight="700" font-size="14.662" transform="matrix(1 0 0 0.99893 192.117 139)">y</text><text fill="#FF0000" font-family="Yu Gothic,Yu Gothic_MSFontService,sans-serif" font-weight="700" font-size="14.662" transform="matrix(1 0 0 0.99893 202.458 139)">軸</text><path d="M314.5 88.9048C314.5 83.6637 318.753 79.415 324 79.415 329.247 79.415 333.5 83.6637 333.5 88.9048 333.5 94.1459 329.247 98.3946 324 98.3946 318.753 98.3946 314.5 94.1459 314.5 88.9048Z" stroke="#172C51" stroke-width="1.33434" stroke-miterlimit="8" fill="#FFC000" fill-rule="evenodd"/><path d="M344.5 51.4449C344.5 46.4797 348.753 42.4546 354 42.4546 359.247 42.4546 363.5 46.4797 363.5 51.4449 363.5 56.4101 359.247 60.4352 354 60.4352 348.753 60.4352 344.5 56.4101 344.5 51.4449Z" stroke="#172C51" stroke-width="1.33434" stroke-miterlimit="8" fill="#FFC000" fill-rule="evenodd"/><path d="M389.5 38.9583C389.5 33.7172 393.529 29.4684 398.5 29.4684 403.471 29.4684 407.5 33.7172 407.5 38.9583 407.5 44.1994 403.471 48.4481 398.5 48.4481 393.529 48.4481 389.5 44.1994 389.5 38.9583Z" stroke="#172C51" stroke-width="1.33434" stroke-miterlimit="8" fill="#FFC000" fill-rule="evenodd"/><path d="M439.5 51.4449C439.5 46.4797 443.529 42.4546 448.5 42.4546 453.471 42.4546 457.5 46.4797 457.5 51.4449 457.5 56.4101 453.471 60.4352 448.5 60.4352 443.529 60.4352 439.5 56.4101 439.5 51.4449Z" stroke="#172C51" stroke-width="1.33434" stroke-miterlimit="8" fill="#FFC000" fill-rule="evenodd"/><path d="M464.5 88.9048C464.5 83.6637 468.529 79.415 473.5 79.415 478.471 79.415 482.5 83.6637 482.5 88.9048 482.5 94.1459 478.471 98.3946 473.5 98.3946 468.529 98.3946 464.5 94.1459 464.5 88.9048Z" stroke="#172C51" stroke-width="1.33434" stroke-miterlimit="8" fill="#FFC000" fill-rule="evenodd"/><text font-family="Calibri,Calibri_MSFontService,sans-serif" font-weight="700" font-size="14.662" transform="matrix(1 0 0 0.99893 319.455 77)">0</text><text font-family="Calibri,Calibri_MSFontService,sans-serif" font-weight="700" font-size="14.662" transform="matrix(1 0 0 0.99893 348.989 38)">1</text><text font-family="Calibri,Calibri_MSFontService,sans-serif" font-weight="700" font-size="14.662" transform="matrix(1 0 0 0.99893 393.072 24)">2</text><text font-family="Calibri,Calibri_MSFontService,sans-serif" font-weight="700" font-size="14.662" transform="matrix(1 0 0 0.99893 444.325 39)">3</text><text font-family="Calibri,Calibri_MSFontService,sans-serif" font-weight="700" font-size="14.662" transform="matrix(1 0 0 0.99893 468.433 77)">4</text><path d="M473 125.865C473 119.797 478.149 114.877 484.5 114.877 490.851 114.877 496 119.797 496 125.865 496 131.934 490.851 136.853 484.5 136.853 478.149 136.853 473 131.934 473 125.865Z" stroke="#FF0000" stroke-width="2.00151" stroke-miterlimit="8" fill="none" fill-rule="evenodd"/><path d="M477 117.874 492 133.857" stroke="#FF0000" stroke-width="2.00151" stroke-miterlimit="8" fill="none" fill-rule="evenodd"/><path d="M0 0 14.9839 15.9829" stroke="#FF0000" stroke-width="1.99937" stroke-miterlimit="8" fill="none" fill-rule="evenodd" transform="matrix(-1.00107 0 0 1 492 117.874)"/><text fill="#FF0000" font-family="Calibri,Calibri_MSFontService,sans-serif" font-weight="700" font-size="14.662" transform="matrix(1 0 0 0.99893 499.848 130)">y</text><text fill="#FF0000" font-family="Yu Gothic,Yu Gothic_MSFontService,sans-serif" font-weight="700" font-size="14.662" transform="matrix(1 0 0 0.99893 510.189 130)">軸</text><path d="M652.5 157.831C652.5 163.072 648.247 167.321 643 167.321 637.753 167.321 633.5 163.072 633.5 157.831 633.5 152.59 637.753 148.341 643 148.341 648.247 148.341 652.5 152.59 652.5 157.831Z" stroke="#172C51" stroke-width="1.33434" stroke-miterlimit="8" fill="#FFC000" fill-rule="evenodd"/><path d="M622.5 195.79C622.5 201.031 618.247 205.28 613 205.28 607.753 205.28 603.5 201.031 603.5 195.79 603.5 190.549 607.753 186.3 613 186.3 618.247 186.3 622.5 190.549 622.5 195.79Z" stroke="#172C51" stroke-width="1.33434" stroke-miterlimit="8" fill="#FFC000" fill-rule="evenodd"/><path d="M577.5 208.277C577.5 213.242 573.471 217.267 568.5 217.267 563.529 217.267 559.5 213.242 559.5 208.277 559.5 203.312 563.529 199.286 568.5 199.286 573.471 199.286 577.5 203.312 577.5 208.277Z" stroke="#172C51" stroke-width="1.33434" stroke-miterlimit="8" fill="#FFC000" fill-rule="evenodd"/><path d="M528.5 195.79C528.5 201.031 524.247 205.28 519 205.28 513.753 205.28 509.5 201.031 509.5 195.79 509.5 190.549 513.753 186.3 519 186.3 524.247 186.3 528.5 190.549 528.5 195.79Z" stroke="#172C51" stroke-width="1.33434" stroke-miterlimit="8" fill="#FFC000" fill-rule="evenodd"/><path d="M502.5 157.831C502.5 163.072 498.471 167.321 493.5 167.321 488.529 167.321 484.5 163.072 484.5 157.831 484.5 152.59 488.529 148.341 493.5 148.341 498.471 148.341 502.5 152.59 502.5 157.831Z" stroke="#172C51" stroke-width="1.33434" stroke-miterlimit="8" fill="#FFC000" fill-rule="evenodd"/><text font-family="Calibri,Calibri_MSFontService,sans-serif" font-weight="700" font-size="14.662" transform="matrix(1 0 0 0.99893 637.161 184)">5</text><text font-family="Calibri,Calibri_MSFontService,sans-serif" font-weight="700" font-size="14.662" transform="matrix(1 0 0 0.99893 607.627 222)">6</text><text font-family="Calibri,Calibri_MSFontService,sans-serif" font-weight="700" font-size="14.662" transform="matrix(1 0 0 0.99893 563.544 236)">7</text><text font-family="Calibri,Calibri_MSFontService,sans-serif" font-weight="700" font-size="14.662" transform="matrix(1 0 0 0.99893 512.291 221)">8</text><text font-family="Calibri,Calibri_MSFontService,sans-serif" font-weight="700" font-size="14.662" transform="matrix(1 0 0 0.99893 488.183 184)">9</text><path d="M243.5 122.369 266.5 122.369 266.5 109.383 289.5 135.355 266.5 161.327 266.5 148.341 243.5 148.341Z" stroke="#172C51" stroke-width="1.33434" stroke-miterlimit="8" fill="#4472C4" fill-rule="evenodd"/><text fill="#7030A0" font-family="Calibri,Calibri_MSFontService,sans-serif" font-weight="700" font-size="14.662" transform="matrix(1 0 0 0.99893 226.116 185)">p r 0 180 0 2</text><path d="M452.5 238.245 452.5 261.72 465.5 261.72 439.5 285.195 413.5 261.72 426.5 261.72 426.5 238.245Z" stroke="#172C51" stroke-width="1.33291" stroke-miterlimit="8" fill="#4472C4" fill-rule="evenodd"/><path d="M318.5 365.109C318.5 360.144 322.753 356.119 328 356.119 333.247 356.119 337.5 360.144 337.5 365.109 337.5 370.074 333.247 374.099 328 374.099 322.753 374.099 318.5 370.074 318.5 365.109Z" stroke="#172C51" stroke-width="1.33434" stroke-miterlimit="8" fill="#FFC000" fill-rule="evenodd"/><path d="M348.5 327.649C348.5 322.408 352.753 318.159 358 318.159 363.247 318.159 367.5 322.408 367.5 327.649 367.5 332.89 363.247 337.139 358 337.139 352.753 337.139 348.5 332.89 348.5 327.649Z" stroke="#172C51" stroke-width="1.33434" stroke-miterlimit="8" fill="#FFC000" fill-rule="evenodd"/><path d="M393.5 315.162C393.5 310.197 397.529 306.172 402.5 306.172 407.471 306.172 411.5 310.197 411.5 315.162 411.5 320.128 407.471 324.153 402.5 324.153 397.529 324.153 393.5 320.128 393.5 315.162Z" stroke="#172C51" stroke-width="1.33434" stroke-miterlimit="8" fill="#FFC000" fill-rule="evenodd"/><path d="M442.5 327.649C442.5 322.408 446.753 318.159 452 318.159 457.247 318.159 461.5 322.408 461.5 327.649 461.5 332.89 457.247 337.139 452 337.139 446.753 337.139 442.5 332.89 442.5 327.649Z" stroke="#172C51" stroke-width="1.33434" stroke-miterlimit="8" fill="#FFC000" fill-rule="evenodd"/><path d="M468.5 365.109C468.5 360.144 472.529 356.119 477.5 356.119 482.471 356.119 486.5 360.144 486.5 365.109 486.5 370.074 482.471 374.099 477.5 374.099 472.529 374.099 468.5 370.074 468.5 365.109Z" stroke="#172C51" stroke-width="1.33434" stroke-miterlimit="8" fill="#FFC000" fill-rule="evenodd"/><text font-family="Calibri,Calibri_MSFontService,sans-serif" font-weight="700" font-size="14.662" transform="matrix(1 0 0 0.99893 323.253 353)">0</text><text font-family="Calibri,Calibri_MSFontService,sans-serif" font-weight="700" font-size="14.662" transform="matrix(1 0 0 0.99893 352.786 314)">1</text><text font-family="Calibri,Calibri_MSFontService,sans-serif" font-weight="700" font-size="14.662" transform="matrix(1 0 0 0.99893 396.869 300)">2</text><text font-family="Calibri,Calibri_MSFontService,sans-serif" font-weight="700" font-size="14.662" transform="matrix(1 0 0 0.99893 448.123 315)">3</text><text font-family="Calibri,Calibri_MSFontService,sans-serif" font-weight="700" font-size="14.662" transform="matrix(1 0 0 0.99893 472.231 353)">4</text><path d="M477 402.069C477 395.725 481.925 390.582 488 390.582 494.075 390.582 499 395.725 499 402.069 499 408.414 494.075 413.557 488 413.557 481.925 413.557 477 408.414 477 402.069Z" stroke="#FF0000" stroke-width="2.00151" stroke-miterlimit="8" fill="none" fill-rule="evenodd"/><path d="M480 394.577 496 409.561" stroke="#FF0000" stroke-width="2.00151" stroke-miterlimit="8" fill="none" fill-rule="evenodd"/><path d="M0 0 15.9829 14.9839" stroke="#FF0000" stroke-width="1.99937" stroke-miterlimit="8" fill="none" fill-rule="evenodd" transform="matrix(-1.00107 0 0 1 496 394.577)"/><text fill="#FF0000" font-family="Calibri,Calibri_MSFontService,sans-serif" font-weight="700" font-size="14.662" transform="matrix(1 0 0 0.99893 503.646 406)">y</text><text fill="#FF0000" font-family="Yu Gothic,Yu Gothic_MSFontService,sans-serif" font-weight="700" font-size="14.662" transform="matrix(1 0 0 0.99893 513.987 406)">軸</text><path d="M656.5 434.035C656.5 439 652.247 443.025 647 443.025 641.753 443.025 637.5 439 637.5 434.035 637.5 429.07 641.753 425.045 647 425.045 652.247 425.045 656.5 429.07 656.5 434.035Z" stroke="#172C51" stroke-width="1.33434" stroke-miterlimit="8" fill="#FFC000" fill-rule="evenodd"/><path d="M625.5 471.994C625.5 476.96 621.471 480.985 616.5 480.985 611.529 480.985 607.5 476.96 607.5 471.994 607.5 467.029 611.529 463.004 616.5 463.004 621.471 463.004 625.5 467.029 625.5 471.994Z" stroke="#172C51" stroke-width="1.33434" stroke-miterlimit="8" fill="#FFC000" fill-rule="evenodd"/><path d="M581.5 484.481C581.5 489.722 577.471 493.971 572.5 493.971 567.529 493.971 563.5 489.722 563.5 484.481 563.5 479.24 567.529 474.991 572.5 474.991 577.471 474.991 581.5 479.24 581.5 484.481Z" stroke="#172C51" stroke-width="1.33434" stroke-miterlimit="8" fill="#FFC000" fill-rule="evenodd"/><path d="M531.5 471.994C531.5 476.96 527.471 480.985 522.5 480.985 517.529 480.985 513.5 476.96 513.5 471.994 513.5 467.029 517.529 463.004 522.5 463.004 527.471 463.004 531.5 467.029 531.5 471.994Z" stroke="#172C51" stroke-width="1.33434" stroke-miterlimit="8" fill="#FFC000" fill-rule="evenodd"/><path d="M506.5 434.035C506.5 439 502.471 443.025 497.5 443.025 492.529 443.025 488.5 439 488.5 434.035 488.5 429.07 492.529 425.045 497.5 425.045 502.471 425.045 506.5 429.07 506.5 434.035Z" stroke="#172C51" stroke-width="1.33434" stroke-miterlimit="8" fill="#FFC000" fill-rule="evenodd"/><text font-family="Calibri,Calibri_MSFontService,sans-serif" font-weight="700" font-size="14.662" transform="matrix(1 0 0 0.99893 640.958 460)">9</text><text font-family="Calibri,Calibri_MSFontService,sans-serif" font-weight="700" font-size="14.662" transform="matrix(1 0 0 0.99893 611.425 498)">8</text><text font-family="Calibri,Calibri_MSFontService,sans-serif" font-weight="700" font-size="14.662" transform="matrix(1 0 0 0.99893 516.089 497)">6</text><text font-family="Calibri,Calibri_MSFontService,sans-serif" font-weight="700" font-size="14.662" transform="matrix(1 0 0 0.99893 491.98 460)">5</text><text font-family="Calibri,Calibri_MSFontService,sans-serif" font-weight="700" font-size="14.662" transform="matrix(1 0 0 0.99893 567.683 510)">7</text><text fill="#7030A0" font-family="Calibri,Calibri_MSFontService,sans-serif" font-weight="700" font-size="14.662" transform="matrix(1 0 0 0.99893 482.521 264)">p reverse half</text></g></svg>