ply
format ascii 1.0
element vertex 60
property float x
property float y
property float z
property uchar red
property uchar green
property uchar blue
element face 12
property list uchar int vertex_indices
end_header
1.538842 0.500000 0.309017 200 43 43
0.951057 1.309017 -0.309017 200 43 43
0.000000 1.618034 0.309017 200 43 43
0.000000 1.000000 1.309017 200 43 43
0.951057 0.309017 1.309017 200 43 43
-0.587785 -0.809017 1.309017 200 121 43
0.587785 -0.809017 1.309017 200 121 43
0.951057 0.309017 1.309017 200 121 43
0.000000 1.000000 1.309017 200 121 43
-0.951057 0.309017 1.309017 200 121 43
0.951057 -1.309017 0.309017 200 200 43
1.538842 -0.500000 -0.309017 200 200 43
1.538842 0.500000 0.309017 200 200 43
0.951057 0.309017 1.309017 200 200 43
0.587785 -0.809017 1.309017 200 200 43
0.951057 -0.309017 -1.309017 121 200 43
0.587785 0.809017 -1.309017 121 200 43
0.951057 1.309017 -0.309017 121 200 43
1.538842 0.500000 0.309017 121 200 43
1.538842 -0.500000 -0.309017 121 200 43
-0.587785 0.809017 -1.309017 43 200 43
-0.951057 1.309017 -0.309017 43 200 43
0.000000 1.618034 0.309017 43 200 43
0.951057 1.309017 -0.309017 43 200 43
0.587785 0.809017 -1.309017 43 200 43
-1.538842 0.500000 0.309017 43 200 121
-0.951057 0.309017 1.309017 43 200 121
0.000000 1.000000 1.309017 43 200 121
0.000000 1.618034 0.309017 43 200 121
-0.951057 1.309017 -0.309017 43 200 121
-0.951057 -0.309017 -1.309017 43 200 200
0.000000 -1.000000 -1.309017 43 200 200
0.000000 -1.618034 -0.309017 43 200 200
-0.951057 -1.309017 0.309017 43 200 200
-1.538842 -0.500000 -0.309017 43 200 200
-0.951057 1.309017 -0.309017 43 121 200
-0.587785 0.809017 -1.309017 43 121 200
-0.951057 -0.309017 -1.309017 43 121 200
-1.538842 -0.500000 -0.309017 43 121 200
-1.538842 0.500000 0.309017 43 121 200
0.587785 0.809017 -1.309017 43 43 200
0.951057 -0.309017 -1.309017 43 43 200
0.000000 -1.000000 -1.309017 43 43 200
-0.951057 -0.309017 -1.309017 43 43 200
-0.587785 0.809017 -1.309017 43 43 200
1.538842 -0.500000 -0.309017 121 43 200
0.951057 -1.309017 0.309017 121 43 200
0.000000 -1.618034 -0.309017 121 43 200
0.000000 -1.000000 -1.309017 121 43 200
0.951057 -0.309017 -1.309017 121 43 200
0.587785 -0.809017 1.309017 200 43 200
-0.587785 -0.809017 1.309017 200 43 200
-0.951057 -1.309017 0.309017 200 43 200
0.000000 -1.618034 -0.309017 200 43 200
0.951057 -1.309017 0.309017 200 43 200
-0.951057 0.309017 1.309017 200 43 121
-1.538842 0.500000 0.309017 200 43 121
-1.538842 -0.500000 -0.309017 200 43 121
-0.951057 -1.309017 0.309017 200 43 121
-0.587785 -0.809017 1.309017 200 43 121
5 0 1 2 3 4
5 5 6 7 8 9
5 10 11 12 13 14
5 15 16 17 18 19
5 20 21 22 23 24
5 25 26 27 28 29
5 30 31 32 33 34
5 35 36 37 38 39
5 40 41 42 43 44
5 45 46 47 48 49
5 50 51 52 53 54
5 55 56 57 58 59
