ply
format ascii 1.0
element vertex 60
property float x
property float y
property float z
property uchar red
property uchar green
property uchar blue
element face 20
property list uchar int vertex_indices
end_header
1.618034 0.000000 1.000000 43 43 200
1.618034 0.000000 -1.000000 43 43 200
1.000000 1.618034 0.000000 43 43 200
1.618034 0.000000 1.000000 43 90 200
1.000000 -1.618034 0.000000 43 90 200
1.618034 0.000000 -1.000000 43 90 200
1.618034 0.000000 1.000000 43 137 200
0.000000 -1.000000 1.618034 43 137 200
1.000000 -1.618034 0.000000 43 137 200
1.618034 0.000000 1.000000 43 184 200
0.000000 1.000000 1.618034 43 184 200
0.000000 -1.000000 1.618034 43 184 200
1.618034 0.000000 1.000000 43 200 168
1.000000 1.618034 0.000000 43 200 168
0.000000 1.000000 1.618034 43 200 168
0.000000 1.000000 -1.618034 43 200 121
1.000000 1.618034 0.000000 43 200 121
1.618034 0.000000 -1.000000 43 200 121
0.000000 -1.000000 -1.618034 43 200 74
1.618034 0.000000 -1.000000 43 200 74
1.000000 -1.618034 0.000000 43 200 74
-1.000000 -1.618034 0.000000 58 200 43
1.000000 -1.618034 0.000000 58 200 43
0.000000 -1.000000 1.618034 58 200 43
-1.618034 0.000000 1.000000 105 200 43
0.000000 -1.000000 1.618034 105 200 43
0.000000 1.000000 1.618034 105 200 43
-1.000000 1.618034 0.000000 152 200 43
0.000000 1.000000 1.618034 152 200 43
1.000000 1.618034 0.000000 152 200 43
1.618034 0.000000 -1.000000 200 200 43
0.000000 -1.000000 -1.618034 200 200 43
0.000000 1.000000 -1.618034 200 200 43
1.000000 -1.618034 0.000000 200 152 43
-1.000000 -1.618034 0.000000 200 152 43
0.000000 -1.000000 -1.618034 200 152 43
0.000000 -1.000000 1.618034 200 105 43
-1.618034 0.000000 1.000000 200 105 43
-1.000000 -1.618034 0.000000 200 105 43
0.000000 1.000000 1.618034 200 58 43
-1.000000 1.618034 0.000000 200 58 43
-1.618034 0.000000 1.000000 200 58 43
1.000000 1.618034 0.000000 200 43 74
0.000000 1.000000 -1.618034 200 43 74
-1.000000 1.618034 0.000000 200 43 74
-1.618034 0.000000 -1.000000 200 43 121
0.000000 1.000000 -1.618034 200 43 121
0.000000 -1.000000 -1.618034 200 43 121
-1.618034 0.000000 -1.000000 200 43 168
0.000000 -1.000000 -1.618034 200 43 168
-1.000000 -1.618034 0.000000 200 43 168
-1.618034 0.000000 -1.000000 184 43 200
-1.000000 -1.618034 0.000000 184 43 200
-1.618034 0.000000 1.000000 184 43 200
-1.618034 0.000000 -1.000000 137 43 200
-1.618034 0.000000 1.000000 137 43 200
-1.000000 1.618034 0.000000 137 43 200
-1.618034 0.000000 -1.000000 90 43 200
-1.000000 1.618034 0.000000 90 43 200
0.000000 1.000000 -1.618034 90 43 200
3 0 1 2
3 3 4 5
3 6 7 8
3 9 10 11
3 12 13 14
3 15 16 17
3 18 19 20
3 21 22 23
3 24 25 26
3 27 28 29
3 30 31 32
3 33 34 35
3 36 37 38
3 39 40 41
3 42 43 44
3 45 46 47
3 48 49 50
3 51 52 53
3 54 55 56
3 57 58 59
