ply
format ascii 1.0
element vertex 24
property float x
property float y
property float z
property uchar red
property uchar green
property uchar blue
element face 8
property list uchar int vertex_indices
end_header
0.000000 1.000000 0.000000 43 43 200
0.000000 0.000000 1.000000 43 43 200
1.000000 0.000000 0.000000 43 43 200
0.000000 1.000000 0.000000 43 160 200
1.000000 0.000000 0.000000 43 160 200
0.000000 0.000000 -1.000000 43 160 200
0.000000 1.000000 0.000000 43 200 121
0.000000 0.000000 -1.000000 43 200 121
-1.000000 0.000000 0.000000 43 200 121
0.000000 1.000000 0.000000 82 200 43
-1.000000 0.000000 0.000000 82 200 43
0.000000 0.000000 1.000000 82 200 43
0.000000 -1.000000 0.000000 200 200 43
1.000000 0.000000 0.000000 200 200 43
0.000000 0.000000 1.000000 200 200 43
0.000000 -1.000000 0.000000 200 82 43
0.000000 0.000000 -1.000000 200 82 43
1.000000 0.000000 0.000000 200 82 43
0.000000 -1.000000 0.000000 200 43 121
-1.000000 0.000000 0.000000 200 43 121
0.000000 0.000000 -1.000000 200 43 121
0.000000 -1.000000 0.000000 160 43 200
0.000000 0.000000 1.000000 160 43 200
-1.000000 0.000000 0.000000 160 43 200
3 0 1 2
3 3 4 5
3 6 7 8
3 9 10 11
3 12 13 14
3 15 16 17
3 18 19 20
3 21 22 23
