ply
format ascii 1.0
element vertex 404
property float x
property float y
property float z
property uchar red
property uchar green
property uchar blue
element face 400
property list uchar int vertex_indices
end_header
-0.005000 1.000000 0.000000 0 0 255
0.005000 1.000000 0.000000 0 0 255
-0.005000 1.000000 0.000000 200 200 255
0.005000 1.000000 0.000000 200 200 255
-0.005000 0.998027 0.062791 0 0 255
0.005000 0.998027 0.062791 0 0 255
-0.005000 0.998027 0.062791 200 200 255
0.005000 0.998027 0.062791 200 200 255
-0.005000 0.992115 0.125333 0 0 255
0.005000 0.992115 0.125333 0 0 255
-0.005000 0.992115 0.125333 200 200 255
0.005000 0.992115 0.125333 200 200 255
-0.005000 0.982287 0.187381 0 0 255
0.005000 0.982287 0.187381 0 0 255
-0.005000 0.982287 0.187381 200 200 255
0.005000 0.982287 0.187381 200 200 255
-0.005000 0.968583 0.248690 0 0 255
0.005000 0.968583 0.248690 0 0 255
-0.005000 0.968583 0.248690 200 200 255
0.005000 0.968583 0.248690 200 200 255
-0.005000 0.951057 0.309017 0 0 255
0.005000 0.951057 0.309017 0 0 255
-0.005000 0.951057 0.309017 200 200 255
0.005000 0.951057 0.309017 200 200 255
-0.005000 0.929776 0.368125 0 0 255
0.005000 0.929776 0.368125 0 0 255
-0.005000 0.929776 0.368125 200 200 255
0.005000 0.929776 0.368125 200 200 255
-0.005000 0.904827 0.425779 0 0 255
0.005000 0.904827 0.425779 0 0 255
-0.005000 0.904827 0.425779 200 200 255
0.005000 0.904827 0.425779 200 200 255
-0.005000 0.876307 0.481754 0 0 255
0.005000 0.876307 0.481754 0 0 255
-0.005000 0.876307 0.481754 200 200 255
0.005000 0.876307 0.481754 200 200 255
-0.005000 0.844328 0.535827 0 0 255
0.005000 0.844328 0.535827 0 0 255
-0.005000 0.844328 0.535827 200 200 255
0.005000 0.844328 0.535827 200 200 255
-0.005000 0.809017 0.587785 0 0 255
0.005000 0.809017 0.587785 0 0 255
-0.005000 0.809017 0.587785 200 200 255
0.005000 0.809017 0.587785 200 200 255
-0.005000 0.770513 0.637424 0 0 255
0.005000 0.770513 0.637424 0 0 255
-0.005000 0.770513 0.637424 200 200 255
0.005000 0.770513 0.637424 200 200 255
-0.005000 0.728969 0.684547 0 0 255
0.005000 0.728969 0.684547 0 0 255
-0.005000 0.728969 0.684547 200 200 255
0.005000 0.728969 0.684547 200 200 255
-0.005000 0.684547 0.728969 0 0 255
0.005000 0.684547 0.728969 0 0 255
-0.005000 0.684547 0.728969 200 200 255
0.005000 0.684547 0.728969 200 200 255
-0.005000 0.637424 0.770513 0 0 255
0.005000 0.637424 0.770513 0 0 255
-0.005000 0.637424 0.770513 200 200 255
0.005000 0.637424 0.770513 200 200 255
-0.005000 0.587785 0.809017 0 0 255
0.005000 0.587785 0.809017 0 0 255
-0.005000 0.587785 0.809017 200 200 255
0.005000 0.587785 0.809017 200 200 255
-0.005000 0.535827 0.844328 0 0 255
0.005000 0.535827 0.844328 0 0 255
-0.005000 0.535827 0.844328 200 200 255
0.005000 0.535827 0.844328 200 200 255
-0.005000 0.481754 0.876307 0 0 255
0.005000 0.481754 0.876307 0 0 255
-0.005000 0.481754 0.876307 200 200 255
0.005000 0.481754 0.876307 200 200 255
-0.005000 0.425779 0.904827 0 0 255
0.005000 0.425779 0.904827 0 0 255
-0.005000 0.425779 0.904827 200 200 255
0.005000 0.425779 0.904827 200 200 255
-0.005000 0.368125 0.929776 0 0 255
0.005000 0.368125 0.929776 0 0 255
-0.005000 0.368125 0.929776 200 200 255
0.005000 0.368125 0.929776 200 200 255
-0.005000 0.309017 0.951057 0 0 255
0.005000 0.309017 0.951057 0 0 255
-0.005000 0.309017 0.951057 200 200 255
0.005000 0.309017 0.951057 200 200 255
-0.005000 0.248690 0.968583 0 0 255
0.005000 0.248690 0.968583 0 0 255
-0.005000 0.248690 0.968583 200 200 255
0.005000 0.248690 0.968583 200 200 255
-0.005000 0.187381 0.982287 0 0 255
0.005000 0.187381 0.982287 0 0 255
-0.005000 0.187381 0.982287 200 200 255
0.005000 0.187381 0.982287 200 200 255
-0.005000 0.125333 0.992115 0 0 255
0.005000 0.125333 0.992115 0 0 255
-0.005000 0.125333 0.992115 200 200 255
0.005000 0.125333 0.992115 200 200 255
-0.005000 0.062791 0.998027 0 0 255
0.005000 0.062791 0.998027 0 0 255
-0.005000 0.062791 0.998027 200 200 255
0.005000 0.062791 0.998027 200 200 255
-0.005000 -0.000000 1.000000 0 0 255
0.005000 -0.000000 1.000000 0 0 255
-0.005000 -0.000000 1.000000 200 200 255
0.005000 -0.000000 1.000000 200 200 255
-0.005000 -0.062791 0.998027 0 0 255
0.005000 -0.062791 0.998027 0 0 255
-0.005000 -0.062791 0.998027 200 200 255
0.005000 -0.062791 0.998027 200 200 255
-0.005000 -0.125333 0.992115 0 0 255
0.005000 -0.125333 0.992115 0 0 255
-0.005000 -0.125333 0.992115 200 200 255
0.005000 -0.125333 0.992115 200 200 255
-0.005000 -0.187381 0.982287 0 0 255
0.005000 -0.187381 0.982287 0 0 255
-0.005000 -0.187381 0.982287 200 200 255
0.005000 -0.187381 0.982287 200 200 255
-0.005000 -0.248690 0.968583 0 0 255
0.005000 -0.248690 0.968583 0 0 255
-0.005000 -0.248690 0.968583 200 200 255
0.005000 -0.248690 0.968583 200 200 255
-0.005000 -0.309017 0.951057 0 0 255
0.005000 -0.309017 0.951057 0 0 255
-0.005000 -0.309017 0.951057 200 200 255
0.005000 -0.309017 0.951057 200 200 255
-0.005000 -0.368125 0.929776 0 0 255
0.005000 -0.368125 0.929776 0 0 255
-0.005000 -0.368125 0.929776 200 200 255
0.005000 -0.368125 0.929776 200 200 255
-0.005000 -0.425779 0.904827 0 0 255
0.005000 -0.425779 0.904827 0 0 255
-0.005000 -0.425779 0.904827 200 200 255
0.005000 -0.425779 0.904827 200 200 255
-0.005000 -0.481754 0.876307 0 0 255
0.005000 -0.481754 0.876307 0 0 255
-0.005000 -0.481754 0.876307 200 200 255
0.005000 -0.481754 0.876307 200 200 255
-0.005000 -0.535827 0.844328 0 0 255
0.005000 -0.535827 0.844328 0 0 255
-0.005000 -0.535827 0.844328 200 200 255
0.005000 -0.535827 0.844328 200 200 255
-0.005000 -0.587785 0.809017 0 0 255
0.005000 -0.587785 0.809017 0 0 255
-0.005000 -0.587785 0.809017 200 200 255
0.005000 -0.587785 0.809017 200 200 255
-0.005000 -0.637424 0.770513 0 0 255
0.005000 -0.637424 0.770513 0 0 255
-0.005000 -0.637424 0.770513 200 200 255
0.005000 -0.637424 0.770513 200 200 255
-0.005000 -0.684547 0.728969 0 0 255
0.005000 -0.684547 0.728969 0 0 255
-0.005000 -0.684547 0.728969 200 200 255
0.005000 -0.684547 0.728969 200 200 255
-0.005000 -0.728969 0.684547 0 0 255
0.005000 -0.728969 0.684547 0 0 255
-0.005000 -0.728969 0.684547 200 200 255
0.005000 -0.728969 0.684547 200 200 255
-0.005000 -0.770513 0.637424 0 0 255
0.005000 -0.770513 0.637424 0 0 255
-0.005000 -0.770513 0.637424 200 200 255
0.005000 -0.770513 0.637424 200 200 255
-0.005000 -0.809017 0.587785 0 0 255
0.005000 -0.809017 0.587785 0 0 255
-0.005000 -0.809017 0.587785 200 200 255
0.005000 -0.809017 0.587785 200 200 255
-0.005000 -0.844328 0.535827 0 0 255
0.005000 -0.844328 0.535827 0 0 255
-0.005000 -0.844328 0.535827 200 200 255
0.005000 -0.844328 0.535827 200 200 255
-0.005000 -0.876307 0.481754 0 0 255
0.005000 -0.876307 0.481754 0 0 255
-0.005000 -0.876307 0.481754 200 200 255
0.005000 -0.876307 0.481754 200 200 255
-0.005000 -0.904827 0.425779 0 0 255
0.005000 -0.904827 0.425779 0 0 255
-0.005000 -0.904827 0.425779 200 200 255
0.005000 -0.904827 0.425779 200 200 255
-0.005000 -0.929776 0.368125 0 0 255
0.005000 -0.929776 0.368125 0 0 255
-0.005000 -0.929776 0.368125 200 200 255
0.005000 -0.929776 0.368125 200 200 255
-0.005000 -0.951057 0.309017 0 0 255
0.005000 -0.951057 0.309017 0 0 255
-0.005000 -0.951057 0.309017 200 200 255
0.005000 -0.951057 0.309017 200 200 255
-0.005000 -0.968583 0.248690 0 0 255
0.005000 -0.968583 0.248690 0 0 255
-0.005000 -0.968583 0.248690 200 200 255
0.005000 -0.968583 0.248690 200 200 255
-0.005000 -0.982287 0.187381 0 0 255
0.005000 -0.982287 0.187381 0 0 255
-0.005000 -0.982287 0.187381 200 200 255
0.005000 -0.982287 0.187381 200 200 255
-0.005000 -0.992115 0.125333 0 0 255
0.005000 -0.992115 0.125333 0 0 255
-0.005000 -0.992115 0.125333 200 200 255
0.005000 -0.992115 0.125333 200 200 255
-0.005000 -0.998027 0.062791 0 0 255
0.005000 -0.998027 0.062791 0 0 255
-0.005000 -0.998027 0.062791 200 200 255
0.005000 -0.998027 0.062791 200 200 255
-0.005000 -1.000000 -0.000000 0 0 255
0.005000 -1.000000 -0.000000 0 0 255
-0.005000 -1.000000 -0.000000 200 200 255
0.005000 -1.000000 -0.000000 200 200 255
-0.005000 -0.998027 -0.062791 0 0 255
0.005000 -0.998027 -0.062791 0 0 255
-0.005000 -0.998027 -0.062791 200 200 255
0.005000 -0.998027 -0.062791 200 200 255
-0.005000 -0.992115 -0.125333 0 0 255
0.005000 -0.992115 -0.125333 0 0 255
-0.005000 -0.992115 -0.125333 200 200 255
0.005000 -0.992115 -0.125333 200 200 255
-0.005000 -0.982287 -0.187381 0 0 255
0.005000 -0.982287 -0.187381 0 0 255
-0.005000 -0.982287 -0.187381 200 200 255
0.005000 -0.982287 -0.187381 200 200 255
-0.005000 -0.968583 -0.248690 0 0 255
0.005000 -0.968583 -0.248690 0 0 255
-0.005000 -0.968583 -0.248690 200 200 255
0.005000 -0.968583 -0.248690 200 200 255
-0.005000 -0.951057 -0.309017 0 0 255
0.005000 -0.951057 -0.309017 0 0 255
-0.005000 -0.951057 -0.309017 200 200 255
0.005000 -0.951057 -0.309017 200 200 255
-0.005000 -0.929776 -0.368125 0 0 255
0.005000 -0.929776 -0.368125 0 0 255
-0.005000 -0.929776 -0.368125 200 200 255
0.005000 -0.929776 -0.368125 200 200 255
-0.005000 -0.904827 -0.425779 0 0 255
0.005000 -0.904827 -0.425779 0 0 255
-0.005000 -0.904827 -0.425779 200 200 255
0.005000 -0.904827 -0.425779 200 200 255
-0.005000 -0.876307 -0.481754 0 0 255
0.005000 -0.876307 -0.481754 0 0 255
-0.005000 -0.876307 -0.481754 200 200 255
0.005000 -0.876307 -0.481754 200 200 255
-0.005000 -0.844328 -0.535827 0 0 255
0.005000 -0.844328 -0.535827 0 0 255
-0.005000 -0.844328 -0.535827 200 200 255
0.005000 -0.844328 -0.535827 200 200 255
-0.005000 -0.809017 -0.587785 0 0 255
0.005000 -0.809017 -0.587785 0 0 255
-0.005000 -0.809017 -0.587785 200 200 255
0.005000 -0.809017 -0.587785 200 200 255
-0.005000 -0.770513 -0.637424 0 0 255
0.005000 -0.770513 -0.637424 0 0 255
-0.005000 -0.770513 -0.637424 200 200 255
0.005000 -0.770513 -0.637424 200 200 255
-0.005000 -0.728969 -0.684547 0 0 255
0.005000 -0.728969 -0.684547 0 0 255
-0.005000 -0.728969 -0.684547 200 200 255
0.005000 -0.728969 -0.684547 200 200 255
-0.005000 -0.684547 -0.728969 0 0 255
0.005000 -0.684547 -0.728969 0 0 255
-0.005000 -0.684547 -0.728969 200 200 255
0.005000 -0.684547 -0.728969 200 200 255
-0.005000 -0.637424 -0.770513 0 0 255
0.005000 -0.637424 -0.770513 0 0 255
-0.005000 -0.637424 -0.770513 200 200 255
0.005000 -0.637424 -0.770513 200 200 255
-0.005000 -0.587785 -0.809017 0 0 255
0.005000 -0.587785 -0.809017 0 0 255
-0.005000 -0.587785 -0.809017 200 200 255
0.005000 -0.587785 -0.809017 200 200 255
-0.005000 -0.535827 -0.844328 0 0 255
0.005000 -0.535827 -0.844328 0 0 255
-0.005000 -0.535827 -0.844328 200 200 255
0.005000 -0.535827 -0.844328 200 200 255
-0.005000 -0.481754 -0.876307 0 0 255
0.005000 -0.481754 -0.876307 0 0 255
-0.005000 -0.481754 -0.876307 200 200 255
0.005000 -0.481754 -0.876307 200 200 255
-0.005000 -0.425779 -0.904827 0 0 255
0.005000 -0.425779 -0.904827 0 0 255
-0.005000 -0.425779 -0.904827 200 200 255
0.005000 -0.425779 -0.904827 200 200 255
-0.005000 -0.368125 -0.929776 0 0 255
0.005000 -0.368125 -0.929776 0 0 255
-0.005000 -0.368125 -0.929776 200 200 255
0.005000 -0.368125 -0.929776 200 200 255
-0.005000 -0.309017 -0.951057 0 0 255
0.005000 -0.309017 -0.951057 0 0 255
-0.005000 -0.309017 -0.951057 200 200 255
0.005000 -0.309017 -0.951057 200 200 255
-0.005000 -0.248690 -0.968583 0 0 255
0.005000 -0.248690 -0.968583 0 0 255
-0.005000 -0.248690 -0.968583 200 200 255
0.005000 -0.248690 -0.968583 200 200 255
-0.005000 -0.187381 -0.982287 0 0 255
0.005000 -0.187381 -0.982287 0 0 255
-0.005000 -0.187381 -0.982287 200 200 255
0.005000 -0.187381 -0.982287 200 200 255
-0.005000 -0.125333 -0.992115 0 0 255
0.005000 -0.125333 -0.992115 0 0 255
-0.005000 -0.125333 -0.992115 200 200 255
0.005000 -0.125333 -0.992115 200 200 255
-0.005000 -0.062791 -0.998027 0 0 255
0.005000 -0.062791 -0.998027 0 0 255
-0.005000 -0.062791 -0.998027 200 200 255
0.005000 -0.062791 -0.998027 200 200 255
-0.005000 -0.000000 -1.000000 0 0 255
0.005000 -0.000000 -1.000000 0 0 255
-0.005000 -0.000000 -1.000000 200 200 255
0.005000 -0.000000 -1.000000 200 200 255
-0.005000 0.062791 -0.998027 0 0 255
0.005000 0.062791 -0.998027 0 0 255
-0.005000 0.062791 -0.998027 200 200 255
0.005000 0.062791 -0.998027 200 200 255
-0.005000 0.125333 -0.992115 0 0 255
0.005000 0.125333 -0.992115 0 0 255
-0.005000 0.125333 -0.992115 200 200 255
0.005000 0.125333 -0.992115 200 200 255
-0.005000 0.187381 -0.982287 0 0 255
0.005000 0.187381 -0.982287 0 0 255
-0.005000 0.187381 -0.982287 200 200 255
0.005000 0.187381 -0.982287 200 200 255
-0.005000 0.248690 -0.968583 0 0 255
0.005000 0.248690 -0.968583 0 0 255
-0.005000 0.248690 -0.968583 200 200 255
0.005000 0.248690 -0.968583 200 200 255
-0.005000 0.309017 -0.951057 0 0 255
0.005000 0.309017 -0.951057 0 0 255
-0.005000 0.309017 -0.951057 200 200 255
0.005000 0.309017 -0.951057 200 200 255
-0.005000 0.368125 -0.929776 0 0 255
0.005000 0.368125 -0.929776 0 0 255
-0.005000 0.368125 -0.929776 200 200 255
0.005000 0.368125 -0.929776 200 200 255
-0.005000 0.425779 -0.904827 0 0 255
0.005000 0.425779 -0.904827 0 0 255
-0.005000 0.425779 -0.904827 200 200 255
0.005000 0.425779 -0.904827 200 200 255
-0.005000 0.481754 -0.876307 0 0 255
0.005000 0.481754 -0.876307 0 0 255
-0.005000 0.481754 -0.876307 200 200 255
0.005000 0.481754 -0.876307 200 200 255
-0.005000 0.535827 -0.844328 0 0 255
0.005000 0.535827 -0.844328 0 0 255
-0.005000 0.535827 -0.844328 200 200 255
0.005000 0.535827 -0.844328 200 200 255
-0.005000 0.587785 -0.809017 0 0 255
0.005000 0.587785 -0.809017 0 0 255
-0.005000 0.587785 -0.809017 200 200 255
0.005000 0.587785 -0.809017 200 200 255
-0.005000 0.637424 -0.770513 0 0 255
0.005000 0.637424 -0.770513 0 0 255
-0.005000 0.637424 -0.770513 200 200 255
0.005000 0.637424 -0.770513 200 200 255
-0.005000 0.684547 -0.728969 0 0 255
0.005000 0.684547 -0.728969 0 0 255
-0.005000 0.684547 -0.728969 200 200 255
0.005000 0.684547 -0.728969 200 200 255
-0.005000 0.728969 -0.684547 0 0 255
0.005000 0.728969 -0.684547 0 0 255
-0.005000 0.728969 -0.684547 200 200 255
0.005000 0.728969 -0.684547 200 200 255
-0.005000 0.770513 -0.637424 0 0 255
0.005000 0.770513 -0.637424 0 0 255
-0.005000 0.770513 -0.637424 200 200 255
0.005000 0.770513 -0.637424 200 200 255
-0.005000 0.809017 -0.587785 0 0 255
0.005000 0.809017 -0.587785 0 0 255
-0.005000 0.809017 -0.587785 200 200 255
0.005000 0.809017 -0.587785 200 200 255
-0.005000 0.844328 -0.535827 0 0 255
0.005000 0.844328 -0.535827 0 0 255
-0.005000 0.844328 -0.535827 200 200 255
0.005000 0.844328 -0.535827 200 200 255
-0.005000 0.876307 -0.481754 0 0 255
0.005000 0.876307 -0.481754 0 0 255
-0.005000 0.876307 -0.481754 200 200 255
0.005000 0.876307 -0.481754 200 200 255
-0.005000 0.904827 -0.425779 0 0 255
0.005000 0.904827 -0.425779 0 0 255
-0.005000 0.904827 -0.425779 200 200 255
0.005000 0.904827 -0.425779 200 200 255
-0.005000 0.929776 -0.368125 0 0 255
0.005000 0.929776 -0.368125 0 0 255
-0.005000 0.929776 -0.368125 200 200 255
0.005000 0.929776 -0.368125 200 200 255
-0.005000 0.951057 -0.309017 0 0 255
0.005000 0.951057 -0.309017 0 0 255
-0.005000 0.951057 -0.309017 200 200 255
0.005000 0.951057 -0.309017 200 200 255
-0.005000 0.968583 -0.248690 0 0 255
0.005000 0.968583 -0.248690 0 0 255
-0.005000 0.968583 -0.248690 200 200 255
0.005000 0.968583 -0.248690 200 200 255
-0.005000 0.982287 -0.187381 0 0 255
0.005000 0.982287 -0.187381 0 0 255
-0.005000 0.982287 -0.187381 200 200 255
0.005000 0.982287 -0.187381 200 200 255
-0.005000 0.992115 -0.125333 0 0 255
0.005000 0.992115 -0.125333 0 0 255
-0.005000 0.992115 -0.125333 200 200 255
0.005000 0.992115 -0.125333 200 200 255
-0.005000 0.998027 -0.062791 0 0 255
0.005000 0.998027 -0.062791 0 0 255
-0.005000 0.998027 -0.062791 200 200 255
0.005000 0.998027 -0.062791 200 200 255
-0.005000 1.000000 0.000000 0 0 255
0.005000 1.000000 0.000000 0 0 255
-0.005000 1.000000 0.000000 200 200 255
0.005000 1.000000 0.000000 200 200 255
3 1 0 5
3 0 4 5
3 2 3 7
3 2 7 6
3 5 4 9
3 4 8 9
3 6 7 11
3 6 11 10
3 9 8 13
3 8 12 13
3 10 11 15
3 10 15 14
3 13 12 17
3 12 16 17
3 14 15 19
3 14 19 18
3 17 16 21
3 16 20 21
3 18 19 23
3 18 23 22
3 21 20 25
3 20 24 25
3 22 23 27
3 22 27 26
3 25 24 29
3 24 28 29
3 26 27 31
3 26 31 30
3 29 28 33
3 28 32 33
3 30 31 35
3 30 35 34
3 33 32 37
3 32 36 37
3 34 35 39
3 34 39 38
3 37 36 41
3 36 40 41
3 38 39 43
3 38 43 42
3 41 40 45
3 40 44 45
3 42 43 47
3 42 47 46
3 45 44 49
3 44 48 49
3 46 47 51
3 46 51 50
3 49 48 53
3 48 52 53
3 50 51 55
3 50 55 54
3 53 52 57
3 52 56 57
3 54 55 59
3 54 59 58
3 57 56 61
3 56 60 61
3 58 59 63
3 58 63 62
3 61 60 65
3 60 64 65
3 62 63 67
3 62 67 66
3 65 64 69
3 64 68 69
3 66 67 71
3 66 71 70
3 69 68 73
3 68 72 73
3 70 71 75
3 70 75 74
3 73 72 77
3 72 76 77
3 74 75 79
3 74 79 78
3 77 76 81
3 76 80 81
3 78 79 83
3 78 83 82
3 81 80 85
3 80 84 85
3 82 83 87
3 82 87 86
3 85 84 89
3 84 88 89
3 86 87 91
3 86 91 90
3 89 88 93
3 88 92 93
3 90 91 95
3 90 95 94
3 93 92 97
3 92 96 97
3 94 95 99
3 94 99 98
3 97 96 101
3 96 100 101
3 98 99 103
3 98 103 102
3 101 100 105
3 100 104 105
3 102 103 107
3 102 107 106
3 105 104 109
3 104 108 109
3 106 107 111
3 106 111 110
3 109 108 113
3 108 112 113
3 110 111 115
3 110 115 114
3 113 112 117
3 112 116 117
3 114 115 119
3 114 119 118
3 117 116 121
3 116 120 121
3 118 119 123
3 118 123 122
3 121 120 125
3 120 124 125
3 122 123 127
3 122 127 126
3 125 124 129
3 124 128 129
3 126 127 131
3 126 131 130
3 129 128 133
3 128 132 133
3 130 131 135
3 130 135 134
3 133 132 137
3 132 136 137
3 134 135 139
3 134 139 138
3 137 136 141
3 136 140 141
3 138 139 143
3 138 143 142
3 141 140 145
3 140 144 145
3 142 143 147
3 142 147 146
3 145 144 149
3 144 148 149
3 146 147 151
3 146 151 150
3 149 148 153
3 148 152 153
3 150 151 155
3 150 155 154
3 153 152 157
3 152 156 157
3 154 155 159
3 154 159 158
3 157 156 161
3 156 160 161
3 158 159 163
3 158 163 162
3 161 160 165
3 160 164 165
3 162 163 167
3 162 167 166
3 165 164 169
3 164 168 169
3 166 167 171
3 166 171 170
3 169 168 173
3 168 172 173
3 170 171 175
3 170 175 174
3 173 172 177
3 172 176 177
3 174 175 179
3 174 179 178
3 177 176 181
3 176 180 181
3 178 179 183
3 178 183 182
3 181 180 185
3 180 184 185
3 182 183 187
3 182 187 186
3 185 184 189
3 184 188 189
3 186 187 191
3 186 191 190
3 189 188 193
3 188 192 193
3 190 191 195
3 190 195 194
3 193 192 197
3 192 196 197
3 194 195 199
3 194 199 198
3 197 196 201
3 196 200 201
3 198 199 203
3 198 203 202
3 201 200 205
3 200 204 205
3 202 203 207
3 202 207 206
3 205 204 209
3 204 208 209
3 206 207 211
3 206 211 210
3 209 208 213
3 208 212 213
3 210 211 215
3 210 215 214
3 213 212 217
3 212 216 217
3 214 215 219
3 214 219 218
3 217 216 221
3 216 220 221
3 218 219 223
3 218 223 222
3 221 220 225
3 220 224 225
3 222 223 227
3 222 227 226
3 225 224 229
3 224 228 229
3 226 227 231
3 226 231 230
3 229 228 233
3 228 232 233
3 230 231 235
3 230 235 234
3 233 232 237
3 232 236 237
3 234 235 239
3 234 239 238
3 237 236 241
3 236 240 241
3 238 239 243
3 238 243 242
3 241 240 245
3 240 244 245
3 242 243 247
3 242 247 246
3 245 244 249
3 244 248 249
3 246 247 251
3 246 251 250
3 249 248 253
3 248 252 253
3 250 251 255
3 250 255 254
3 253 252 257
3 252 256 257
3 254 255 259
3 254 259 258
3 257 256 261
3 256 260 261
3 258 259 263
3 258 263 262
3 261 260 265
3 260 264 265
3 262 263 267
3 262 267 266
3 265 264 269
3 264 268 269
3 266 267 271
3 266 271 270
3 269 268 273
3 268 272 273
3 270 271 275
3 270 275 274
3 273 272 277
3 272 276 277
3 274 275 279
3 274 279 278
3 277 276 281
3 276 280 281
3 278 279 283
3 278 283 282
3 281 280 285
3 280 284 285
3 282 283 287
3 282 287 286
3 285 284 289
3 284 288 289
3 286 287 291
3 286 291 290
3 289 288 293
3 288 292 293
3 290 291 295
3 290 295 294
3 293 292 297
3 292 296 297
3 294 295 299
3 294 299 298
3 297 296 301
3 296 300 301
3 298 299 303
3 298 303 302
3 301 300 305
3 300 304 305
3 302 303 307
3 302 307 306
3 305 304 309
3 304 308 309
3 306 307 311
3 306 311 310
3 309 308 313
3 308 312 313
3 310 311 315
3 310 315 314
3 313 312 317
3 312 316 317
3 314 315 319
3 314 319 318
3 317 316 321
3 316 320 321
3 318 319 323
3 318 323 322
3 321 320 325
3 320 324 325
3 322 323 327
3 322 327 326
3 325 324 329
3 324 328 329
3 326 327 331
3 326 331 330
3 329 328 333
3 328 332 333
3 330 331 335
3 330 335 334
3 333 332 337
3 332 336 337
3 334 335 339
3 334 339 338
3 337 336 341
3 336 340 341
3 338 339 343
3 338 343 342
3 341 340 345
3 340 344 345
3 342 343 347
3 342 347 346
3 345 344 349
3 344 348 349
3 346 347 351
3 346 351 350
3 349 348 353
3 348 352 353
3 350 351 355
3 350 355 354
3 353 352 357
3 352 356 357
3 354 355 359
3 354 359 358
3 357 356 361
3 356 360 361
3 358 359 363
3 358 363 362
3 361 360 365
3 360 364 365
3 362 363 367
3 362 367 366
3 365 364 369
3 364 368 369
3 366 367 371
3 366 371 370
3 369 368 373
3 368 372 373
3 370 371 375
3 370 375 374
3 373 372 377
3 372 376 377
3 374 375 379
3 374 379 378
3 377 376 381
3 376 380 381
3 378 379 383
3 378 383 382
3 381 380 385
3 380 384 385
3 382 383 387
3 382 387 386
3 385 384 389
3 384 388 389
3 386 387 391
3 386 391 390
3 389 388 393
3 388 392 393
3 390 391 395
3 390 395 394
3 393 392 397
3 392 396 397
3 394 395 399
3 394 399 398
3 397 396 401
3 396 400 401
3 398 399 403
3 398 403 402
