ply
format ascii 1.0
element vertex 24
property float x
property float y
property float z
property uchar red
property uchar green
property uchar blue
element face 20
property list uchar int vertex_indices
end_header
-0.005000 1.000000 0.000000 0 0 255
0.005000 1.000000 0.000000 0 0 255
-0.005000 1.000000 0.000000 200 200 255
0.005000 1.000000 0.000000 200 200 255
-0.005000 0.309017 0.951057 0 0 255
0.005000 0.309017 0.951057 0 0 255
-0.005000 0.309017 0.951057 200 200 255
0.005000 0.309017 0.951057 200 200 255
-0.005000 -0.809017 0.587785 0 0 255
0.005000 -0.809017 0.587785 0 0 255
-0.005000 -0.809017 0.587785 200 200 255
0.005000 -0.809017 0.587785 200 200 255
-0.005000 -0.809017 -0.587785 0 0 255
0.005000 -0.809017 -0.587785 0 0 255
-0.005000 -0.809017 -0.587785 200 200 255
0.005000 -0.809017 -0.587785 200 200 255
-0.005000 0.309017 -0.951057 0 0 255
0.005000 0.309017 -0.951057 0 0 255
-0.005000 0.309017 -0.951057 200 200 255
0.005000 0.309017 -0.951057 200 200 255
-0.005000 1.000000 -0.000000 0 0 255
0.005000 1.000000 -0.000000 0 0 255
-0.005000 1.000000 -0.000000 200 200 255
0.005000 1.000000 -0.000000 200 200 255
3 1 0 5
3 0 4 5
3 2 3 7
3 2 7 6
3 5 4 9
3 4 8 9
3 6 7 11
3 6 11 10
3 9 8 13
3 8 12 13
3 10 11 15
3 10 15 14
3 13 12 17
3 12 16 17
3 14 15 19
3 14 19 18
3 17 16 21
3 16 20 21
3 18 19 23
3 18 23 22
