ply
format ascii 1.0
element vertex 202
property float x
property float y
property float z
property uchar red
property uchar green
property uchar blue
element face 300
property list uchar int vertex_indices
end_header
-0.005000 1.000000 0.000000 0 0 0
0.005000 1.000000 0.000000 0 0 0
-0.005000 0.998027 0.062791 0 0 0
0.005000 0.998027 0.062791 0 0 0
-0.005000 0.992115 0.125333 0 0 0
0.005000 0.992115 0.125333 0 0 0
-0.005000 0.982287 0.187381 0 0 0
0.005000 0.982287 0.187381 0 0 0
-0.005000 0.968583 0.248690 0 0 0
0.005000 0.968583 0.248690 0 0 0
-0.005000 0.951057 0.309017 0 0 0
0.005000 0.951057 0.309017 0 0 0
-0.005000 0.929776 0.368125 0 0 0
0.005000 0.929776 0.368125 0 0 0
-0.005000 0.904827 0.425779 0 0 0
0.005000 0.904827 0.425779 0 0 0
-0.005000 0.876307 0.481754 0 0 0
0.005000 0.876307 0.481754 0 0 0
-0.005000 0.844328 0.535827 0 0 0
0.005000 0.844328 0.535827 0 0 0
-0.005000 0.809017 0.587785 0 0 0
0.005000 0.809017 0.587785 0 0 0
-0.005000 0.770513 0.637424 0 0 0
0.005000 0.770513 0.637424 0 0 0
-0.005000 0.728969 0.684547 0 0 0
0.005000 0.728969 0.684547 0 0 0
-0.005000 0.684547 0.728969 0 0 0
0.005000 0.684547 0.728969 0 0 0
-0.005000 0.637424 0.770513 0 0 0
0.005000 0.637424 0.770513 0 0 0
-0.005000 0.587785 0.809017 0 0 0
0.005000 0.587785 0.809017 0 0 0
-0.005000 0.535827 0.844328 0 0 0
0.005000 0.535827 0.844328 0 0 0
-0.005000 0.481754 0.876307 0 0 0
0.005000 0.481754 0.876307 0 0 0
-0.005000 0.425779 0.904827 0 0 0
0.005000 0.425779 0.904827 0 0 0
-0.005000 0.368125 0.929776 0 0 0
0.005000 0.368125 0.929776 0 0 0
-0.005000 0.309017 0.951057 0 0 0
0.005000 0.309017 0.951057 0 0 0
-0.005000 0.248690 0.968583 0 0 0
0.005000 0.248690 0.968583 0 0 0
-0.005000 0.187381 0.982287 0 0 0
0.005000 0.187381 0.982287 0 0 0
-0.005000 0.125333 0.992115 0 0 0
0.005000 0.125333 0.992115 0 0 0
-0.005000 0.062791 0.998027 0 0 0
0.005000 0.062791 0.998027 0 0 0
-0.005000 -0.000000 1.000000 0 0 0
0.005000 -0.000000 1.000000 0 0 0
-0.005000 -0.062791 0.998027 0 0 0
0.005000 -0.062791 0.998027 0 0 0
-0.005000 -0.125333 0.992115 0 0 0
0.005000 -0.125333 0.992115 0 0 0
-0.005000 -0.187381 0.982287 0 0 0
0.005000 -0.187381 0.982287 0 0 0
-0.005000 -0.248690 0.968583 0 0 0
0.005000 -0.248690 0.968583 0 0 0
-0.005000 -0.309017 0.951057 0 0 0
0.005000 -0.309017 0.951057 0 0 0
-0.005000 -0.368125 0.929776 0 0 0
0.005000 -0.368125 0.929776 0 0 0
-0.005000 -0.425779 0.904827 0 0 0
0.005000 -0.425779 0.904827 0 0 0
-0.005000 -0.481754 0.876307 0 0 0
0.005000 -0.481754 0.876307 0 0 0
-0.005000 -0.535827 0.844328 0 0 0
0.005000 -0.535827 0.844328 0 0 0
-0.005000 -0.587785 0.809017 0 0 0
0.005000 -0.587785 0.809017 0 0 0
-0.005000 -0.637424 0.770513 0 0 0
0.005000 -0.637424 0.770513 0 0 0
-0.005000 -0.684547 0.728969 0 0 0
0.005000 -0.684547 0.728969 0 0 0
-0.005000 -0.728969 0.684547 0 0 0
0.005000 -0.728969 0.684547 0 0 0
-0.005000 -0.770513 0.637424 0 0 0
0.005000 -0.770513 0.637424 0 0 0
-0.005000 -0.809017 0.587785 0 0 0
0.005000 -0.809017 0.587785 0 0 0
-0.005000 -0.844328 0.535827 0 0 0
0.005000 -0.844328 0.535827 0 0 0
-0.005000 -0.876307 0.481754 0 0 0
0.005000 -0.876307 0.481754 0 0 0
-0.005000 -0.904827 0.425779 0 0 0
0.005000 -0.904827 0.425779 0 0 0
-0.005000 -0.929776 0.368125 0 0 0
0.005000 -0.929776 0.368125 0 0 0
-0.005000 -0.951057 0.309017 0 0 0
0.005000 -0.951057 0.309017 0 0 0
-0.005000 -0.968583 0.248690 0 0 0
0.005000 -0.968583 0.248690 0 0 0
-0.005000 -0.982287 0.187381 0 0 0
0.005000 -0.982287 0.187381 0 0 0
-0.005000 -0.992115 0.125333 0 0 0
0.005000 -0.992115 0.125333 0 0 0
-0.005000 -0.998027 0.062791 0 0 0
0.005000 -0.998027 0.062791 0 0 0
-0.005000 -1.000000 -0.000000 0 0 0
0.005000 -1.000000 -0.000000 0 0 0
-0.005000 -0.998027 -0.062791 0 0 0
0.005000 -0.998027 -0.062791 0 0 0
-0.005000 -0.992115 -0.125333 0 0 0
0.005000 -0.992115 -0.125333 0 0 0
-0.005000 -0.982287 -0.187381 0 0 0
0.005000 -0.982287 -0.187381 0 0 0
-0.005000 -0.968583 -0.248690 0 0 0
0.005000 -0.968583 -0.248690 0 0 0
-0.005000 -0.951057 -0.309017 0 0 0
0.005000 -0.951057 -0.309017 0 0 0
-0.005000 -0.929776 -0.368125 0 0 0
0.005000 -0.929776 -0.368125 0 0 0
-0.005000 -0.904827 -0.425779 0 0 0
0.005000 -0.904827 -0.425779 0 0 0
-0.005000 -0.876307 -0.481754 0 0 0
0.005000 -0.876307 -0.481754 0 0 0
-0.005000 -0.844328 -0.535827 0 0 0
0.005000 -0.844328 -0.535827 0 0 0
-0.005000 -0.809017 -0.587785 0 0 0
0.005000 -0.809017 -0.587785 0 0 0
-0.005000 -0.770513 -0.637424 0 0 0
0.005000 -0.770513 -0.637424 0 0 0
-0.005000 -0.728969 -0.684547 0 0 0
0.005000 -0.728969 -0.684547 0 0 0
-0.005000 -0.684547 -0.728969 0 0 0
0.005000 -0.684547 -0.728969 0 0 0
-0.005000 -0.637424 -0.770513 0 0 0
0.005000 -0.637424 -0.770513 0 0 0
-0.005000 -0.587785 -0.809017 0 0 0
0.005000 -0.587785 -0.809017 0 0 0
-0.005000 -0.535827 -0.844328 0 0 0
0.005000 -0.535827 -0.844328 0 0 0
-0.005000 -0.481754 -0.876307 0 0 0
0.005000 -0.481754 -0.876307 0 0 0
-0.005000 -0.425779 -0.904827 0 0 0
0.005000 -0.425779 -0.904827 0 0 0
-0.005000 -0.368125 -0.929776 0 0 0
0.005000 -0.368125 -0.929776 0 0 0
-0.005000 -0.309017 -0.951057 0 0 0
0.005000 -0.309017 -0.951057 0 0 0
-0.005000 -0.248690 -0.968583 0 0 0
0.005000 -0.248690 -0.968583 0 0 0
-0.005000 -0.187381 -0.982287 0 0 0
0.005000 -0.187381 -0.982287 0 0 0
-0.005000 -0.125333 -0.992115 0 0 0
0.005000 -0.125333 -0.992115 0 0 0
-0.005000 -0.062791 -0.998027 0 0 0
0.005000 -0.062791 -0.998027 0 0 0
-0.005000 -0.000000 -1.000000 0 0 0
0.005000 -0.000000 -1.000000 0 0 0
-0.005000 0.062791 -0.998027 0 0 0
0.005000 0.062791 -0.998027 0 0 0
-0.005000 0.125333 -0.992115 0 0 0
0.005000 0.125333 -0.992115 0 0 0
-0.005000 0.187381 -0.982287 0 0 0
0.005000 0.187381 -0.982287 0 0 0
-0.005000 0.248690 -0.968583 0 0 0
0.005000 0.248690 -0.968583 0 0 0
-0.005000 0.309017 -0.951057 0 0 0
0.005000 0.309017 -0.951057 0 0 0
-0.005000 0.368125 -0.929776 0 0 0
0.005000 0.368125 -0.929776 0 0 0
-0.005000 0.425779 -0.904827 0 0 0
0.005000 0.425779 -0.904827 0 0 0
-0.005000 0.481754 -0.876307 0 0 0
0.005000 0.481754 -0.876307 0 0 0
-0.005000 0.535827 -0.844328 0 0 0
0.005000 0.535827 -0.844328 0 0 0
-0.005000 0.587785 -0.809017 0 0 0
0.005000 0.587785 -0.809017 0 0 0
-0.005000 0.637424 -0.770513 0 0 0
0.005000 0.637424 -0.770513 0 0 0
-0.005000 0.684547 -0.728969 0 0 0
0.005000 0.684547 -0.728969 0 0 0
-0.005000 0.728969 -0.684547 0 0 0
0.005000 0.728969 -0.684547 0 0 0
-0.005000 0.770513 -0.637424 0 0 0
0.005000 0.770513 -0.637424 0 0 0
-0.005000 0.809017 -0.587785 0 0 0
0.005000 0.809017 -0.587785 0 0 0
-0.005000 0.844328 -0.535827 0 0 0
0.005000 0.844328 -0.535827 0 0 0
-0.005000 0.876307 -0.481754 0 0 0
0.005000 0.876307 -0.481754 0 0 0
-0.005000 0.904827 -0.425779 0 0 0
0.005000 0.904827 -0.425779 0 0 0
-0.005000 0.929776 -0.368125 0 0 0
0.005000 0.929776 -0.368125 0 0 0
-0.005000 0.951057 -0.309017 0 0 0
0.005000 0.951057 -0.309017 0 0 0
-0.005000 0.968583 -0.248690 0 0 0
0.005000 0.968583 -0.248690 0 0 0
-0.005000 0.982287 -0.187381 0 0 0
0.005000 0.982287 -0.187381 0 0 0
-0.005000 0.992115 -0.125333 0 0 0
0.005000 0.992115 -0.125333 0 0 0
-0.005000 0.998027 -0.062791 0 0 0
0.005000 0.998027 -0.062791 0 0 0
-0.005000 1.000000 0.000000 0 0 0
0.005000 1.000000 0.000000 0 0 0
3 1 0 3
3 0 2 3
3 0 1 3
3 2 0 3
3 3 2 5
3 2 4 5
3 5 4 7
3 4 6 7
3 4 5 7
3 6 4 7
3 7 6 9
3 6 8 9
3 9 8 11
3 8 10 11
3 8 9 11
3 10 8 11
3 11 10 13
3 10 12 13
3 13 12 15
3 12 14 15
3 12 13 15
3 14 12 15
3 15 14 17
3 14 16 17
3 17 16 19
3 16 18 19
3 16 17 19
3 18 16 19
3 19 18 21
3 18 20 21
3 21 20 23
3 20 22 23
3 20 21 23
3 22 20 23
3 23 22 25
3 22 24 25
3 25 24 27
3 24 26 27
3 24 25 27
3 26 24 27
3 27 26 29
3 26 28 29
3 29 28 31
3 28 30 31
3 28 29 31
3 30 28 31
3 31 30 33
3 30 32 33
3 33 32 35
3 32 34 35
3 32 33 35
3 34 32 35
3 35 34 37
3 34 36 37
3 37 36 39
3 36 38 39
3 36 37 39
3 38 36 39
3 39 38 41
3 38 40 41
3 41 40 43
3 40 42 43
3 40 41 43
3 42 40 43
3 43 42 45
3 42 44 45
3 45 44 47
3 44 46 47
3 44 45 47
3 46 44 47
3 47 46 49
3 46 48 49
3 49 48 51
3 48 50 51
3 48 49 51
3 50 48 51
3 51 50 53
3 50 52 53
3 53 52 55
3 52 54 55
3 52 53 55
3 54 52 55
3 55 54 57
3 54 56 57
3 57 56 59
3 56 58 59
3 56 57 59
3 58 56 59
3 59 58 61
3 58 60 61
3 61 60 63
3 60 62 63
3 60 61 63
3 62 60 63
3 63 62 65
3 62 64 65
3 65 64 67
3 64 66 67
3 64 65 67
3 66 64 67
3 67 66 69
3 66 68 69
3 69 68 71
3 68 70 71
3 68 69 71
3 70 68 71
3 71 70 73
3 70 72 73
3 73 72 75
3 72 74 75
3 72 73 75
3 74 72 75
3 75 74 77
3 74 76 77
3 77 76 79
3 76 78 79
3 76 77 79
3 78 76 79
3 79 78 81
3 78 80 81
3 81 80 83
3 80 82 83
3 80 81 83
3 82 80 83
3 83 82 85
3 82 84 85
3 85 84 87
3 84 86 87
3 84 85 87
3 86 84 87
3 87 86 89
3 86 88 89
3 89 88 91
3 88 90 91
3 88 89 91
3 90 88 91
3 91 90 93
3 90 92 93
3 93 92 95
3 92 94 95
3 92 93 95
3 94 92 95
3 95 94 97
3 94 96 97
3 97 96 99
3 96 98 99
3 96 97 99
3 98 96 99
3 99 98 101
3 98 100 101
3 101 100 103
3 100 102 103
3 100 101 103
3 102 100 103
3 103 102 105
3 102 104 105
3 105 104 107
3 104 106 107
3 104 105 107
3 106 104 107
3 107 106 109
3 106 108 109
3 109 108 111
3 108 110 111
3 108 109 111
3 110 108 111
3 111 110 113
3 110 112 113
3 113 112 115
3 112 114 115
3 112 113 115
3 114 112 115
3 115 114 117
3 114 116 117
3 117 116 119
3 116 118 119
3 116 117 119
3 118 116 119
3 119 118 121
3 118 120 121
3 121 120 123
3 120 122 123
3 120 121 123
3 122 120 123
3 123 122 125
3 122 124 125
3 125 124 127
3 124 126 127
3 124 125 127
3 126 124 127
3 127 126 129
3 126 128 129
3 129 128 131
3 128 130 131
3 128 129 131
3 130 128 131
3 131 130 133
3 130 132 133
3 133 132 135
3 132 134 135
3 132 133 135
3 134 132 135
3 135 134 137
3 134 136 137
3 137 136 139
3 136 138 139
3 136 137 139
3 138 136 139
3 139 138 141
3 138 140 141
3 141 140 143
3 140 142 143
3 140 141 143
3 142 140 143
3 143 142 145
3 142 144 145
3 145 144 147
3 144 146 147
3 144 145 147
3 146 144 147
3 147 146 149
3 146 148 149
3 149 148 151
3 148 150 151
3 148 149 151
3 150 148 151
3 151 150 153
3 150 152 153
3 153 152 155
3 152 154 155
3 152 153 155
3 154 152 155
3 155 154 157
3 154 156 157
3 157 156 159
3 156 158 159
3 156 157 159
3 158 156 159
3 159 158 161
3 158 160 161
3 161 160 163
3 160 162 163
3 160 161 163
3 162 160 163
3 163 162 165
3 162 164 165
3 165 164 167
3 164 166 167
3 164 165 167
3 166 164 167
3 167 166 169
3 166 168 169
3 169 168 171
3 168 170 171
3 168 169 171
3 170 168 171
3 171 170 173
3 170 172 173
3 173 172 175
3 172 174 175
3 172 173 175
3 174 172 175
3 175 174 177
3 174 176 177
3 177 176 179
3 176 178 179
3 176 177 179
3 178 176 179
3 179 178 181
3 178 180 181
3 181 180 183
3 180 182 183
3 180 181 183
3 182 180 183
3 183 182 185
3 182 184 185
3 185 184 187
3 184 186 187
3 184 185 187
3 186 184 187
3 187 186 189
3 186 188 189
3 189 188 191
3 188 190 191
3 188 189 191
3 190 188 191
3 191 190 193
3 190 192 193
3 193 192 195
3 192 194 195
3 192 193 195
3 194 192 195
3 195 194 197
3 194 196 197
3 197 196 199
3 196 198 199
3 196 197 199
3 198 196 199
3 199 198 201
3 198 200 201
