ply
format ascii 1.0
element vertex 300
property float x
property float y
property float z
property uchar red
property uchar green
property uchar blue
element face 150
property list uchar int vertex_indices
end_header
-0.005000 0.309017 0.951057 0 0 0
0.005000 0.309017 0.951057 0 0 0
-0.005000 0.343566 0.903504 0 0 0
0.005000 0.343566 0.903504 0 0 0
-0.005000 0.378115 0.855951 0 0 0
0.005000 0.378115 0.855951 0 0 0
-0.005000 0.378115 0.855951 0 0 0
0.005000 0.378115 0.855951 0 0 0
-0.005000 0.412664 0.808398 0 0 0
0.005000 0.412664 0.808398 0 0 0
-0.005000 0.447214 0.760845 0 0 0
0.005000 0.447214 0.760845 0 0 0
-0.005000 0.447214 0.760845 0 0 0
0.005000 0.447214 0.760845 0 0 0
-0.005000 0.481763 0.713292 0 0 0
0.005000 0.481763 0.713292 0 0 0
-0.005000 0.516312 0.665740 0 0 0
0.005000 0.516312 0.665740 0 0 0
-0.005000 0.516312 0.665740 0 0 0
0.005000 0.516312 0.665740 0 0 0
-0.005000 0.550861 0.618187 0 0 0
0.005000 0.550861 0.618187 0 0 0
-0.005000 0.585410 0.570634 0 0 0
0.005000 0.585410 0.570634 0 0 0
-0.005000 0.585410 0.570634 0 0 0
0.005000 0.585410 0.570634 0 0 0
-0.005000 0.619959 0.523081 0 0 0
0.005000 0.619959 0.523081 0 0 0
-0.005000 0.654508 0.475528 0 0 0
0.005000 0.654508 0.475528 0 0 0
-0.005000 0.654508 0.475528 0 0 0
0.005000 0.654508 0.475528 0 0 0
-0.005000 0.689058 0.427975 0 0 0
0.005000 0.689058 0.427975 0 0 0
-0.005000 0.723607 0.380423 0 0 0
0.005000 0.723607 0.380423 0 0 0
-0.005000 0.723607 0.380423 0 0 0
0.005000 0.723607 0.380423 0 0 0
-0.005000 0.758156 0.332870 0 0 0
0.005000 0.758156 0.332870 0 0 0
-0.005000 0.792705 0.285317 0 0 0
0.005000 0.792705 0.285317 0 0 0
-0.005000 0.792705 0.285317 0 0 0
0.005000 0.792705 0.285317 0 0 0
-0.005000 0.827254 0.237764 0 0 0
0.005000 0.827254 0.237764 0 0 0
-0.005000 0.861803 0.190211 0 0 0
0.005000 0.861803 0.190211 0 0 0
-0.005000 0.861803 0.190211 0 0 0
0.005000 0.861803 0.190211 0 0 0
-0.005000 0.896353 0.142658 0 0 0
0.005000 0.896353 0.142658 0 0 0
-0.005000 0.930902 0.095106 0 0 0
0.005000 0.930902 0.095106 0 0 0
-0.005000 0.930902 0.095106 0 0 0
0.005000 0.930902 0.095106 0 0 0
-0.005000 0.965451 0.047553 0 0 0
0.005000 0.965451 0.047553 0 0 0
-0.005000 1.000000 0.000000 0 0 0
0.005000 1.000000 0.000000 0 0 0
-0.005000 -0.809017 0.587785 0 0 0
0.005000 -0.809017 0.587785 0 0 0
-0.005000 -0.753115 0.605949 0 0 0
0.005000 -0.753115 0.605949 0 0 0
-0.005000 -0.697214 0.624112 0 0 0
0.005000 -0.697214 0.624112 0 0 0
-0.005000 -0.697214 0.624112 0 0 0
0.005000 -0.697214 0.624112 0 0 0
-0.005000 -0.641312 0.642276 0 0 0
0.005000 -0.641312 0.642276 0 0 0
-0.005000 -0.585410 0.660440 0 0 0
0.005000 -0.585410 0.660440 0 0 0
-0.005000 -0.585410 0.660440 0 0 0
0.005000 -0.585410 0.660440 0 0 0
-0.005000 -0.529508 0.678603 0 0 0
0.005000 -0.529508 0.678603 0 0 0
-0.005000 -0.473607 0.696767 0 0 0
0.005000 -0.473607 0.696767 0 0 0
-0.005000 -0.473607 0.696767 0 0 0
0.005000 -0.473607 0.696767 0 0 0
-0.005000 -0.417705 0.714930 0 0 0
0.005000 -0.417705 0.714930 0 0 0
-0.005000 -0.361803 0.733094 0 0 0
0.005000 -0.361803 0.733094 0 0 0
-0.005000 -0.361803 0.733094 0 0 0
0.005000 -0.361803 0.733094 0 0 0
-0.005000 -0.305902 0.751257 0 0 0
0.005000 -0.305902 0.751257 0 0 0
-0.005000 -0.250000 0.769421 0 0 0
0.005000 -0.250000 0.769421 0 0 0
-0.005000 -0.250000 0.769421 0 0 0
0.005000 -0.250000 0.769421 0 0 0
-0.005000 -0.194098 0.787584 0 0 0
0.005000 -0.194098 0.787584 0 0 0
-0.005000 -0.138197 0.805748 0 0 0
0.005000 -0.138197 0.805748 0 0 0
-0.005000 -0.138197 0.805748 0 0 0
0.005000 -0.138197 0.805748 0 0 0
-0.005000 -0.082295 0.823912 0 0 0
0.005000 -0.082295 0.823912 0 0 0
-0.005000 -0.026393 0.842075 0 0 0
0.005000 -0.026393 0.842075 0 0 0
-0.005000 -0.026393 0.842075 0 0 0
0.005000 -0.026393 0.842075 0 0 0
-0.005000 0.029508 0.860239 0 0 0
0.005000 0.029508 0.860239 0 0 0
-0.005000 0.085410 0.878402 0 0 0
0.005000 0.085410 0.878402 0 0 0
-0.005000 0.085410 0.878402 0 0 0
0.005000 0.085410 0.878402 0 0 0
-0.005000 0.141312 0.896566 0 0 0
0.005000 0.141312 0.896566 0 0 0
-0.005000 0.197214 0.914729 0 0 0
0.005000 0.197214 0.914729 0 0 0
-0.005000 0.197214 0.914729 0 0 0
0.005000 0.197214 0.914729 0 0 0
-0.005000 0.253115 0.932893 0 0 0
0.005000 0.253115 0.932893 0 0 0
-0.005000 0.309017 0.951057 0 0 0
0.005000 0.309017 0.951057 0 0 0
-0.005000 -0.809017 -0.587785 0 0 0
0.005000 -0.809017 -0.587785 0 0 0
-0.005000 -0.809017 -0.529007 0 0 0
0.005000 -0.809017 -0.529007 0 0 0
-0.005000 -0.809017 -0.470228 0 0 0
0.005000 -0.809017 -0.470228 0 0 0
-0.005000 -0.809017 -0.470228 0 0 0
0.005000 -0.809017 -0.470228 0 0 0
-0.005000 -0.809017 -0.411450 0 0 0
0.005000 -0.809017 -0.411450 0 0 0
-0.005000 -0.809017 -0.352671 0 0 0
0.005000 -0.809017 -0.352671 0 0 0
-0.005000 -0.809017 -0.352671 0 0 0
0.005000 -0.809017 -0.352671 0 0 0
-0.005000 -0.809017 -0.293893 0 0 0
0.005000 -0.809017 -0.293893 0 0 0
-0.005000 -0.809017 -0.235114 0 0 0
0.005000 -0.809017 -0.235114 0 0 0
-0.005000 -0.809017 -0.235114 0 0 0
0.005000 -0.809017 -0.235114 0 0 0
-0.005000 -0.809017 -0.176336 0 0 0
0.005000 -0.809017 -0.176336 0 0 0
-0.005000 -0.809017 -0.117557 0 0 0
0.005000 -0.809017 -0.117557 0 0 0
-0.005000 -0.809017 -0.117557 0 0 0
0.005000 -0.809017 -0.117557 0 0 0
-0.005000 -0.809017 -0.058779 0 0 0
0.005000 -0.809017 -0.058779 0 0 0
-0.005000 -0.809017 0.000000 0 0 0
0.005000 -0.809017 0.000000 0 0 0
-0.005000 -0.809017 0.000000 0 0 0
0.005000 -0.809017 0.000000 0 0 0
-0.005000 -0.809017 0.058779 0 0 0
0.005000 -0.809017 0.058779 0 0 0
-0.005000 -0.809017 0.117557 0 0 0
0.005000 -0.809017 0.117557 0 0 0
-0.005000 -0.809017 0.117557 0 0 0
0.005000 -0.809017 0.117557 0 0 0
-0.005000 -0.809017 0.176336 0 0 0
0.005000 -0.809017 0.176336 0 0 0
-0.005000 -0.809017 0.235114 0 0 0
0.005000 -0.809017 0.235114 0 0 0
-0.005000 -0.809017 0.235114 0 0 0
0.005000 -0.809017 0.235114 0 0 0
-0.005000 -0.809017 0.293893 0 0 0
0.005000 -0.809017 0.293893 0 0 0
-0.005000 -0.809017 0.352671 0 0 0
0.005000 -0.809017 0.352671 0 0 0
-0.005000 -0.809017 0.352671 0 0 0
0.005000 -0.809017 0.352671 0 0 0
-0.005000 -0.809017 0.411450 0 0 0
0.005000 -0.809017 0.411450 0 0 0
-0.005000 -0.809017 0.470228 0 0 0
0.005000 -0.809017 0.470228 0 0 0
-0.005000 -0.809017 0.470228 0 0 0
0.005000 -0.809017 0.470228 0 0 0
-0.005000 -0.809017 0.529007 0 0 0
0.005000 -0.809017 0.529007 0 0 0
-0.005000 -0.809017 0.587785 0 0 0
0.005000 -0.809017 0.587785 0 0 0
-0.005000 0.309017 -0.951057 0 0 0
0.005000 0.309017 -0.951057 0 0 0
-0.005000 0.253115 -0.932893 0 0 0
0.005000 0.253115 -0.932893 0 0 0
-0.005000 0.197214 -0.914729 0 0 0
0.005000 0.197214 -0.914729 0 0 0
-0.005000 0.197214 -0.914729 0 0 0
0.005000 0.197214 -0.914729 0 0 0
-0.005000 0.141312 -0.896566 0 0 0
0.005000 0.141312 -0.896566 0 0 0
-0.005000 0.085410 -0.878402 0 0 0
0.005000 0.085410 -0.878402 0 0 0
-0.005000 0.085410 -0.878402 0 0 0
0.005000 0.085410 -0.878402 0 0 0
-0.005000 0.029508 -0.860239 0 0 0
0.005000 0.029508 -0.860239 0 0 0
-0.005000 -0.026393 -0.842075 0 0 0
0.005000 -0.026393 -0.842075 0 0 0
-0.005000 -0.026393 -0.842075 0 0 0
0.005000 -0.026393 -0.842075 0 0 0
-0.005000 -0.082295 -0.823912 0 0 0
0.005000 -0.082295 -0.823912 0 0 0
-0.005000 -0.138197 -0.805748 0 0 0
0.005000 -0.138197 -0.805748 0 0 0
-0.005000 -0.138197 -0.805748 0 0 0
0.005000 -0.138197 -0.805748 0 0 0
-0.005000 -0.194098 -0.787584 0 0 0
0.005000 -0.194098 -0.787584 0 0 0
-0.005000 -0.250000 -0.769421 0 0 0
0.005000 -0.250000 -0.769421 0 0 0
-0.005000 -0.250000 -0.769421 0 0 0
0.005000 -0.250000 -0.769421 0 0 0
-0.005000 -0.305902 -0.751257 0 0 0
0.005000 -0.305902 -0.751257 0 0 0
-0.005000 -0.361803 -0.733094 0 0 0
0.005000 -0.361803 -0.733094 0 0 0
-0.005000 -0.361803 -0.733094 0 0 0
0.005000 -0.361803 -0.733094 0 0 0
-0.005000 -0.417705 -0.714930 0 0 0
0.005000 -0.417705 -0.714930 0 0 0
-0.005000 -0.473607 -0.696767 0 0 0
0.005000 -0.473607 -0.696767 0 0 0
-0.005000 -0.473607 -0.696767 0 0 0
0.005000 -0.473607 -0.696767 0 0 0
-0.005000 -0.529508 -0.678603 0 0 0
0.005000 -0.529508 -0.678603 0 0 0
-0.005000 -0.585410 -0.660440 0 0 0
0.005000 -0.585410 -0.660440 0 0 0
-0.005000 -0.585410 -0.660440 0 0 0
0.005000 -0.585410 -0.660440 0 0 0
-0.005000 -0.641312 -0.642276 0 0 0
0.005000 -0.641312 -0.642276 0 0 0
-0.005000 -0.697214 -0.624112 0 0 0
0.005000 -0.697214 -0.624112 0 0 0
-0.005000 -0.697214 -0.624112 0 0 0
0.005000 -0.697214 -0.624112 0 0 0
-0.005000 -0.753115 -0.605949 0 0 0
0.005000 -0.753115 -0.605949 0 0 0
-0.005000 -0.809017 -0.587785 0 0 0
0.005000 -0.809017 -0.587785 0 0 0
-0.005000 1.000000 0.000000 0 0 0
0.005000 1.000000 0.000000 0 0 0
-0.005000 0.965451 -0.047553 0 0 0
0.005000 0.965451 -0.047553 0 0 0
-0.005000 0.930902 -0.095106 0 0 0
0.005000 0.930902 -0.095106 0 0 0
-0.005000 0.930902 -0.095106 0 0 0
0.005000 0.930902 -0.095106 0 0 0
-0.005000 0.896353 -0.142658 0 0 0
0.005000 0.896353 -0.142658 0 0 0
-0.005000 0.861803 -0.190211 0 0 0
0.005000 0.861803 -0.190211 0 0 0
-0.005000 0.861803 -0.190211 0 0 0
0.005000 0.861803 -0.190211 0 0 0
-0.005000 0.827254 -0.237764 0 0 0
0.005000 0.827254 -0.237764 0 0 0
-0.005000 0.792705 -0.285317 0 0 0
0.005000 0.792705 -0.285317 0 0 0
-0.005000 0.792705 -0.285317 0 0 0
0.005000 0.792705 -0.285317 0 0 0
-0.005000 0.758156 -0.332870 0 0 0
0.005000 0.758156 -0.332870 0 0 0
-0.005000 0.723607 -0.380423 0 0 0
0.005000 0.723607 -0.380423 0 0 0
-0.005000 0.723607 -0.380423 0 0 0
0.005000 0.723607 -0.380423 0 0 0
-0.005000 0.689058 -0.427975 0 0 0
0.005000 0.689058 -0.427975 0 0 0
-0.005000 0.654508 -0.475528 0 0 0
0.005000 0.654508 -0.475528 0 0 0
-0.005000 0.654508 -0.475528 0 0 0
0.005000 0.654508 -0.475528 0 0 0
-0.005000 0.619959 -0.523081 0 0 0
0.005000 0.619959 -0.523081 0 0 0
-0.005000 0.585410 -0.570634 0 0 0
0.005000 0.585410 -0.570634 0 0 0
-0.005000 0.585410 -0.570634 0 0 0
0.005000 0.585410 -0.570634 0 0 0
-0.005000 0.550861 -0.618187 0 0 0
0.005000 0.550861 -0.618187 0 0 0
-0.005000 0.516312 -0.665740 0 0 0
0.005000 0.516312 -0.665740 0 0 0
-0.005000 0.516312 -0.665740 0 0 0
0.005000 0.516312 -0.665740 0 0 0
-0.005000 0.481763 -0.713292 0 0 0
0.005000 0.481763 -0.713292 0 0 0
-0.005000 0.447214 -0.760845 0 0 0
0.005000 0.447214 -0.760845 0 0 0
-0.005000 0.447214 -0.760845 0 0 0
0.005000 0.447214 -0.760845 0 0 0
-0.005000 0.412664 -0.808398 0 0 0
0.005000 0.412664 -0.808398 0 0 0
-0.005000 0.378115 -0.855951 0 0 0
0.005000 0.378115 -0.855951 0 0 0
-0.005000 0.378115 -0.855951 0 0 0
0.005000 0.378115 -0.855951 0 0 0
-0.005000 0.343566 -0.903504 0 0 0
0.005000 0.343566 -0.903504 0 0 0
-0.005000 0.309017 -0.951057 0 0 0
0.005000 0.309017 -0.951057 0 0 0
4 0 1 3 2
4 2 3 5 4
4 2 3 1 0
4 6 7 9 8
4 8 9 11 10
4 8 9 7 6
4 12 13 15 14
4 14 15 17 16
4 14 15 13 12
4 18 19 21 20
4 20 21 23 22
4 20 21 19 18
4 24 25 27 26
4 26 27 29 28
4 26 27 25 24
4 30 31 33 32
4 32 33 35 34
4 32 33 31 30
4 36 37 39 38
4 38 39 41 40
4 38 39 37 36
4 42 43 45 44
4 44 45 47 46
4 44 45 43 42
4 48 49 51 50
4 50 51 53 52
4 50 51 49 48
4 54 55 57 56
4 56 57 59 58
4 56 57 55 54
4 60 61 63 62
4 62 63 65 64
4 62 63 61 60
4 66 67 69 68
4 68 69 71 70
4 68 69 67 66
4 72 73 75 74
4 74 75 77 76
4 74 75 73 72
4 78 79 81 80
4 80 81 83 82
4 80 81 79 78
4 84 85 87 86
4 86 87 89 88
4 86 87 85 84
4 90 91 93 92
4 92 93 95 94
4 92 93 91 90
4 96 97 99 98
4 98 99 101 100
4 98 99 97 96
4 102 103 105 104
4 104 105 107 106
4 104 105 103 102
4 108 109 111 110
4 110 111 113 112
4 110 111 109 108
4 114 115 117 116
4 116 117 119 118
4 116 117 115 114
4 120 121 123 122
4 122 123 125 124
4 122 123 121 120
4 126 127 129 128
4 128 129 131 130
4 128 129 127 126
4 132 133 135 134
4 134 135 137 136
4 134 135 133 132
4 138 139 141 140
4 140 141 143 142
4 140 141 139 138
4 144 145 147 146
4 146 147 149 148
4 146 147 145 144
4 150 151 153 152
4 152 153 155 154
4 152 153 151 150
4 156 157 159 158
4 158 159 161 160
4 158 159 157 156
4 162 163 165 164
4 164 165 167 166
4 164 165 163 162
4 168 169 171 170
4 170 171 173 172
4 170 171 169 168
4 174 175 177 176
4 176 177 179 178
4 176 177 175 174
4 180 181 183 182
4 182 183 185 184
4 182 183 181 180
4 186 187 189 188
4 188 189 191 190
4 188 189 187 186
4 192 193 195 194
4 194 195 197 196
4 194 195 193 192
4 198 199 201 200
4 200 201 203 202
4 200 201 199 198
4 204 205 207 206
4 206 207 209 208
4 206 207 205 204
4 210 211 213 212
4 212 213 215 214
4 212 213 211 210
4 216 217 219 218
4 218 219 221 220
4 218 219 217 216
4 222 223 225 224
4 224 225 227 226
4 224 225 223 222
4 228 229 231 230
4 230 231 233 232
4 230 231 229 228
4 234 235 237 236
4 236 237 239 238
4 236 237 235 234
4 240 241 243 242
4 242 243 245 244
4 242 243 241 240
4 246 247 249 248
4 248 249 251 250
4 248 249 247 246
4 252 253 255 254
4 254 255 257 256
4 254 255 253 252
4 258 259 261 260
4 260 261 263 262
4 260 261 259 258
4 264 265 267 266
4 266 267 269 268
4 266 267 265 264
4 270 271 273 272
4 272 273 275 274
4 272 273 271 270
4 276 277 279 278
4 278 279 281 280
4 278 279 277 276
4 282 283 285 284
4 284 285 287 286
4 284 285 283 282
4 288 289 291 290
4 290 291 293 292
4 290 291 289 288
4 294 295 297 296
4 296 297 299 298
4 296 297 295 294
