ply
format ascii 1.0
element vertex 240
property float x
property float y
property float z
property uchar red
property uchar green
property uchar blue
element face 40
property list uchar int vertex_indices
end_header
1.618034 0.000000 0.333333 49 49 230
1.618034 0.000000 -0.333333 49 49 230
1.412023 0.539345 -0.666667 49 49 230
1.206011 1.078689 -0.333333 49 49 230
1.206011 1.078689 0.333333 49 49 230
1.412023 0.539345 0.666667 49 49 230
1.618034 0.000000 0.333333 216 216 240
1.618034 0.000000 -0.333333 216 216 240
1.412023 0.539345 -0.666667 216 216 240
1.206011 1.078689 -0.333333 216 216 240
1.206011 1.078689 0.333333 216 216 240
1.412023 0.539345 0.666667 216 216 240
1.412023 -0.539345 0.666667 49 103 230
1.206011 -1.078689 0.333333 49 103 230
1.206011 -1.078689 -0.333333 49 103 230
1.412023 -0.539345 -0.666667 49 103 230
1.618034 0.000000 -0.333333 49 103 230
1.618034 0.000000 0.333333 49 103 230
1.412023 -0.539345 0.666667 216 223 240
1.206011 -1.078689 0.333333 216 223 240
1.206011 -1.078689 -0.333333 216 223 240
1.412023 -0.539345 -0.666667 216 223 240
1.618034 0.000000 -0.333333 216 223 240
1.618034 0.000000 0.333333 216 223 240
1.078689 -0.333333 1.206011 49 157 230
0.539345 -0.666667 1.412023 49 157 230
0.333333 -1.206011 1.078689 49 157 230
0.666667 -1.412023 0.539345 49 157 230
1.206011 -1.078689 0.333333 49 157 230
1.412023 -0.539345 0.666667 49 157 230
1.078689 -0.333333 1.206011 216 230 240
0.539345 -0.666667 1.412023 216 230 240
0.333333 -1.206011 1.078689 216 230 240
0.666667 -1.412023 0.539345 216 230 240
1.206011 -1.078689 0.333333 216 230 240
1.412023 -0.539345 0.666667 216 230 240
1.078689 0.333333 1.206011 49 211 230
0.539345 0.666667 1.412023 49 211 230
0.000000 0.333333 1.618034 49 211 230
0.000000 -0.333333 1.618034 49 211 230
0.539345 -0.666667 1.412023 49 211 230
1.078689 -0.333333 1.206011 49 211 230
1.078689 0.333333 1.206011 216 237 240
0.539345 0.666667 1.412023 216 237 240
0.000000 0.333333 1.618034 216 237 240
0.000000 -0.333333 1.618034 216 237 240
0.539345 -0.666667 1.412023 216 237 240
1.078689 -0.333333 1.206011 216 237 240
1.412023 0.539345 0.666667 49 230 193
1.206011 1.078689 0.333333 49 230 193
0.666667 1.412023 0.539345 49 230 193
0.333333 1.206011 1.078689 49 230 193
0.539345 0.666667 1.412023 49 230 193
1.078689 0.333333 1.206011 49 230 193
1.412023 0.539345 0.666667 216 240 235
1.206011 1.078689 0.333333 216 240 235
0.666667 1.412023 0.539345 216 240 235
0.333333 1.206011 1.078689 216 240 235
0.539345 0.666667 1.412023 216 240 235
1.078689 0.333333 1.206011 216 240 235
0.333333 1.206011 -1.078689 49 230 139
0.666667 1.412023 -0.539345 49 230 139
1.206011 1.078689 -0.333333 49 230 139
1.412023 0.539345 -0.666667 49 230 139
1.078689 0.333333 -1.206011 49 230 139
0.539345 0.666667 -1.412023 49 230 139
0.333333 1.206011 -1.078689 216 240 228
0.666667 1.412023 -0.539345 216 240 228
1.206011 1.078689 -0.333333 216 240 228
1.412023 0.539345 -0.666667 216 240 228
1.078689 0.333333 -1.206011 216 240 228
0.539345 0.666667 -1.412023 216 240 228
0.539345 -0.666667 -1.412023 49 230 85
1.078689 -0.333333 -1.206011 49 230 85
1.412023 -0.539345 -0.666667 49 230 85
1.206011 -1.078689 -0.333333 49 230 85
0.666667 -1.412023 -0.539345 49 230 85
0.333333 -1.206011 -1.078689 49 230 85
0.539345 -0.666667 -1.412023 216 240 221
1.078689 -0.333333 -1.206011 216 240 221
1.412023 -0.539345 -0.666667 216 240 221
1.206011 -1.078689 -0.333333 216 240 221
0.666667 -1.412023 -0.539345 216 240 221
0.333333 -1.206011 -1.078689 216 240 221
-0.333333 -1.618034 0.000000 67 230 49
0.333333 -1.618034 0.000000 67 230 49
0.666667 -1.412023 0.539345 67 230 49
0.333333 -1.206011 1.078689 67 230 49
-0.333333 -1.206011 1.078689 67 230 49
-0.666667 -1.412023 0.539345 67 230 49
-0.333333 -1.618034 0.000000 218 240 216
0.333333 -1.618034 0.000000 218 240 216
0.666667 -1.412023 0.539345 218 240 216
0.333333 -1.206011 1.078689 218 240 216
-0.333333 -1.206011 1.078689 218 240 216
-0.666667 -1.412023 0.539345 218 240 216
-1.078689 -0.333333 1.206011 121 230 49
-0.539345 -0.666667 1.412023 121 230 49
0.000000 -0.333333 1.618034 121 230 49
0.000000 0.333333 1.618034 121 230 49
-0.539345 0.666667 1.412023 121 230 49
-1.078689 0.333333 1.206011 121 230 49
-1.078689 -0.333333 1.206011 225 240 216
-0.539345 -0.666667 1.412023 225 240 216
0.000000 -0.333333 1.618034 225 240 216
0.000000 0.333333 1.618034 225 240 216
-0.539345 0.666667 1.412023 225 240 216
-1.078689 0.333333 1.206011 225 240 216
-0.666667 1.412023 0.539345 175 230 49
-0.333333 1.206011 1.078689 175 230 49
0.333333 1.206011 1.078689 175 230 49
0.666667 1.412023 0.539345 175 230 49
0.333333 1.618034 0.000000 175 230 49
-0.333333 1.618034 0.000000 175 230 49
-0.666667 1.412023 0.539345 232 240 216
-0.333333 1.206011 1.078689 232 240 216
0.333333 1.206011 1.078689 232 240 216
0.666667 1.412023 0.539345 232 240 216
0.333333 1.618034 0.000000 232 240 216
-0.333333 1.618034 0.000000 232 240 216
1.078689 -0.333333 -1.206011 230 230 49
0.539345 -0.666667 -1.412023 230 230 49
0.000000 -0.333333 -1.618034 230 230 49
0.000000 0.333333 -1.618034 230 230 49
0.539345 0.666667 -1.412023 230 230 49
1.078689 0.333333 -1.206011 230 230 49
1.078689 -0.333333 -1.206011 240 240 216
0.539345 -0.666667 -1.412023 240 240 216
0.000000 -0.333333 -1.618034 240 240 216
0.000000 0.333333 -1.618034 240 240 216
0.539345 0.666667 -1.412023 240 240 216
1.078689 0.333333 -1.206011 240 240 216
0.333333 -1.618034 0.000000 230 175 49
-0.333333 -1.618034 0.000000 230 175 49
-0.666667 -1.412023 -0.539345 230 175 49
-0.333333 -1.206011 -1.078689 230 175 49
0.333333 -1.206011 -1.078689 230 175 49
0.666667 -1.412023 -0.539345 230 175 49
0.333333 -1.618034 0.000000 240 232 216
-0.333333 -1.618034 0.000000 240 232 216
-0.666667 -1.412023 -0.539345 240 232 216
-0.333333 -1.206011 -1.078689 240 232 216
0.333333 -1.206011 -1.078689 240 232 216
0.666667 -1.412023 -0.539345 240 232 216
-0.539345 -0.666667 1.412023 230 121 49
-1.078689 -0.333333 1.206011 230 121 49
-1.412023 -0.539345 0.666667 230 121 49
-1.206011 -1.078689 0.333333 230 121 49
-0.666667 -1.412023 0.539345 230 121 49
-0.333333 -1.206011 1.078689 230 121 49
-0.539345 -0.666667 1.412023 240 225 216
-1.078689 -0.333333 1.206011 240 225 216
-1.412023 -0.539345 0.666667 240 225 216
-1.206011 -1.078689 0.333333 240 225 216
-0.666667 -1.412023 0.539345 240 225 216
-0.333333 -1.206011 1.078689 240 225 216
-0.333333 1.206011 1.078689 230 67 49
-0.666667 1.412023 0.539345 230 67 49
-1.206011 1.078689 0.333333 230 67 49
-1.412023 0.539345 0.666667 230 67 49
-1.078689 0.333333 1.206011 230 67 49
-0.539345 0.666667 1.412023 230 67 49
-0.333333 1.206011 1.078689 240 218 216
-0.666667 1.412023 0.539345 240 218 216
-1.206011 1.078689 0.333333 240 218 216
-1.412023 0.539345 0.666667 240 218 216
-1.078689 0.333333 1.206011 240 218 216
-0.539345 0.666667 1.412023 240 218 216
0.666667 1.412023 -0.539345 230 49 85
0.333333 1.206011 -1.078689 230 49 85
-0.333333 1.206011 -1.078689 230 49 85
-0.666667 1.412023 -0.539345 230 49 85
-0.333333 1.618034 0.000000 230 49 85
0.333333 1.618034 0.000000 230 49 85
0.666667 1.412023 -0.539345 240 216 221
0.333333 1.206011 -1.078689 240 216 221
-0.333333 1.206011 -1.078689 240 216 221
-0.666667 1.412023 -0.539345 240 216 221
-0.333333 1.618034 0.000000 240 216 221
0.333333 1.618034 0.000000 240 216 221
-1.078689 0.333333 -1.206011 230 49 139
-0.539345 0.666667 -1.412023 230 49 139
0.000000 0.333333 -1.618034 230 49 139
0.000000 -0.333333 -1.618034 230 49 139
-0.539345 -0.666667 -1.412023 230 49 139
-1.078689 -0.333333 -1.206011 230 49 139
-1.078689 0.333333 -1.206011 240 216 228
-0.539345 0.666667 -1.412023 240 216 228
0.000000 0.333333 -1.618034 240 216 228
0.000000 -0.333333 -1.618034 240 216 228
-0.539345 -0.666667 -1.412023 240 216 228
-1.078689 -0.333333 -1.206011 240 216 228
-1.078689 -0.333333 -1.206011 230 49 193
-0.539345 -0.666667 -1.412023 230 49 193
-0.333333 -1.206011 -1.078689 230 49 193
-0.666667 -1.412023 -0.539345 230 49 193
-1.206011 -1.078689 -0.333333 230 49 193
-1.412023 -0.539345 -0.666667 230 49 193
-1.078689 -0.333333 -1.206011 240 216 235
-0.539345 -0.666667 -1.412023 240 216 235
-0.333333 -1.206011 -1.078689 240 216 235
-0.666667 -1.412023 -0.539345 240 216 235
-1.206011 -1.078689 -0.333333 240 216 235
-1.412023 -0.539345 -0.666667 240 216 235
-1.412023 -0.539345 -0.666667 211 49 230
-1.206011 -1.078689 -0.333333 211 49 230
-1.206011 -1.078689 0.333333 211 49 230
-1.412023 -0.539345 0.666667 211 49 230
-1.618034 0.000000 0.333333 211 49 230
-1.618034 0.000000 -0.333333 211 49 230
-1.412023 -0.539345 -0.666667 237 216 240
-1.206011 -1.078689 -0.333333 237 216 240
-1.206011 -1.078689 0.333333 237 216 240
-1.412023 -0.539345 0.666667 237 216 240
-1.618034 0.000000 0.333333 237 216 240
-1.618034 0.000000 -0.333333 237 216 240
-1.618034 0.000000 -0.333333 157 49 230
-1.618034 0.000000 0.333333 157 49 230
-1.412023 0.539345 0.666667 157 49 230
-1.206011 1.078689 0.333333 157 49 230
-1.206011 1.078689 -0.333333 157 49 230
-1.412023 0.539345 -0.666667 157 49 230
-1.618034 0.000000 -0.333333 230 216 240
-1.618034 0.000000 0.333333 230 216 240
-1.412023 0.539345 0.666667 230 216 240
-1.206011 1.078689 0.333333 230 216 240
-1.206011 1.078689 -0.333333 230 216 240
-1.412023 0.539345 -0.666667 230 216 240
-1.412023 0.539345 -0.666667 103 49 230
-1.206011 1.078689 -0.333333 103 49 230
-0.666667 1.412023 -0.539345 103 49 230
-0.333333 1.206011 -1.078689 103 49 230
-0.539345 0.666667 -1.412023 103 49 230
-1.078689 0.333333 -1.206011 103 49 230
-1.412023 0.539345 -0.666667 223 216 240
-1.206011 1.078689 -0.333333 223 216 240
-0.666667 1.412023 -0.539345 223 216 240
-0.333333 1.206011 -1.078689 223 216 240
-0.539345 0.666667 -1.412023 223 216 240
-1.078689 0.333333 -1.206011 223 216 240
6 0 1 2 3 4 5
6 11 10 9 8 7 6
6 12 13 14 15 16 17
6 23 22 21 20 19 18
6 24 25 26 27 28 29
6 35 34 33 32 31 30
6 36 37 38 39 40 41
6 47 46 45 44 43 42
6 48 49 50 51 52 53
6 59 58 57 56 55 54
6 60 61 62 63 64 65
6 71 70 69 68 67 66
6 72 73 74 75 76 77
6 83 82 81 80 79 78
6 84 85 86 87 88 89
6 95 94 93 92 91 90
6 96 97 98 99 100 101
6 107 106 105 104 103 102
6 108 109 110 111 112 113
6 119 118 117 116 115 114
6 120 121 122 123 124 125
6 131 130 129 128 127 126
6 132 133 134 135 136 137
6 143 142 141 140 139 138
6 144 145 146 147 148 149
6 155 154 153 152 151 150
6 156 157 158 159 160 161
6 167 166 165 164 163 162
6 168 169 170 171 172 173
6 179 178 177 176 175 174
6 180 181 182 183 184 185
6 191 190 189 188 187 186
6 192 193 194 195 196 197
6 203 202 201 200 199 198
6 204 205 206 207 208 209
6 215 214 213 212 211 210
6 216 217 218 219 220 221
6 227 226 225 224 223 222
6 228 229 230 231 232 233
6 239 238 237 236 235 234
