ply
format ascii 1.0
element vertex 12
property float x
property float y
property float z
property uchar red
property uchar green
property uchar blue
element face 4
property list uchar int vertex_indices
end_header
1.000000 1.000000 1.000000 43 43 200
-1.000000 -1.000000 1.000000 43 43 200
1.000000 -1.000000 -1.000000 43 43 200
-1.000000 -1.000000 1.000000 43 200 121
-1.000000 1.000000 -1.000000 43 200 121
1.000000 -1.000000 -1.000000 43 200 121
1.000000 -1.000000 -1.000000 200 200 43
-1.000000 1.000000 -1.000000 200 200 43
1.000000 1.000000 1.000000 200 200 43
1.000000 1.000000 1.000000 200 43 121
-1.000000 1.000000 -1.000000 200 43 121
-1.000000 -1.000000 1.000000 200 43 121
3 0 1 2
3 3 4 5
3 6 7 8
3 9 10 11
